<?xml version="1.0" encoding="utf-8" standalone="no"?>
<!DOCTYPE svg PUBLIC "-//W3C//DTD SVG 1.1//EN"
  "http://www.w3.org/Graphics/SVG/1.1/DTD/svg11.dtd">
<svg xmlns:xlink="http://www.w3.org/1999/xlink" width="432pt" height="216pt" viewBox="0 0 432 216" xmlns="http://www.w3.org/2000/svg" version="1.1">
 <metadata>
  <rdf:RDF xmlns:dc="http://purl.org/dc/elements/1.1/" xmlns:cc="http://creativecommons.org/ns#" xmlns:rdf="http://www.w3.org/1999/02/22-rdf-syntax-ns#">
   <cc:Work>
    <dc:type rdf:resource="http://purl.org/dc/dcmitype/StillImage"/>
    <dc:date>2025-04-06T22:46:47.399353</dc:date>
    <dc:format>image/svg+xml</dc:format>
    <dc:creator>
     <cc:Agent>
      <dc:title>Matplotlib v3.7.2, https://matplotlib.org/</dc:title>
     </cc:Agent>
    </dc:creator>
   </cc:Work>
  </rdf:RDF>
 </metadata>
 <defs>
  <style type="text/css">*{stroke-linejoin: round; stroke-linecap: butt}</style>
 </defs>
 <g id="figure_1">
  <g id="patch_1">
   <path d="M 0 216 
L 432 216 
L 432 0 
L 0 0 
z
" style="fill: #ffffff"/>
  </g>
  <g id="axes_1">
   <g id="patch_2">
    <path d="M 54 192.24 
L 388.8 192.24 
L 388.8 25.92 
L 54 25.92 
z
" style="fill: #ffffff"/>
   </g>
   <g id="PolyCollection_1">
    <defs>
     <path id="m7406289c5c" d="M 69.218182 -23.76 
L 69.218182 -23.76 
L 85.237321 -23.76 
L 101.256459 -23.76 
L 117.275598 -23.76 
L 133.294737 -23.76 
L 149.313876 -23.76 
L 165.333014 -23.76 
L 181.352153 -23.76 
L 197.371292 -23.76 
L 213.390431 -23.76 
L 229.409569 -23.76 
L 245.428708 -23.76 
L 261.447847 -23.76 
L 277.466986 -23.76 
L 293.486124 -23.76 
L 309.505263 -23.76 
L 325.524402 -23.76 
L 341.543541 -23.76 
L 357.562679 -23.76 
L 373.581818 -23.76 
L 373.581818 -23.760001 
L 373.581818 -23.760001 
L 357.562679 -23.760017 
L 341.543541 -29.068298 
L 325.524402 -26.968975 
L 309.505263 -23.760065 
L 293.486124 -23.760004 
L 277.466986 -23.76009 
L 261.447847 -23.760009 
L 245.428708 -23.760001 
L 229.409569 -23.777569 
L 213.390431 -23.804277 
L 197.371292 -23.760187 
L 181.352153 -23.760002 
L 165.333014 -24.150354 
L 149.313876 -23.760035 
L 133.294737 -23.760001 
L 117.275598 -23.76 
L 101.256459 -23.760004 
L 85.237321 -23.760005 
L 69.218182 -23.76 
z
" style="stroke: #1f77b4"/>
    </defs>
    <g clip-path="url(#pca2b95b379)">
     <use xlink:href="#m7406289c5c" x="0" y="216" style="fill: #1f77b4; stroke: #1f77b4"/>
    </g>
   </g>
   <g id="PolyCollection_2">
    <defs>
     <path id="mb84ae11fc4" d="M 69.218182 -25.11161 
L 69.218182 -23.76 
L 85.237321 -23.760005 
L 101.256459 -23.760004 
L 117.275598 -23.76 
L 133.294737 -23.760001 
L 149.313876 -23.760035 
L 165.333014 -24.150354 
L 181.352153 -23.760002 
L 197.371292 -23.760187 
L 213.390431 -23.804277 
L 229.409569 -23.777569 
L 245.428708 -23.760001 
L 261.447847 -23.760009 
L 277.466986 -23.76009 
L 293.486124 -23.760004 
L 309.505263 -23.760065 
L 325.524402 -26.968975 
L 341.543541 -29.068298 
L 357.562679 -23.760017 
L 373.581818 -23.760001 
L 373.581818 -23.760002 
L 373.581818 -23.760002 
L 357.562679 -23.760018 
L 341.543541 -29.068298 
L 325.524402 -26.969027 
L 309.505263 -23.760069 
L 293.486124 -23.760007 
L 277.466986 -23.760106 
L 261.447847 -23.76001 
L 245.428708 -23.76078 
L 229.409569 -23.77757 
L 213.390431 -23.804284 
L 197.371292 -23.760197 
L 181.352153 -23.760004 
L 165.333014 -24.150354 
L 149.313876 -23.760037 
L 133.294737 -23.760002 
L 117.275598 -33.356226 
L 101.256459 -28.21883 
L 85.237321 -26.791445 
L 69.218182 -25.11161 
z
" style="stroke: #ff7f0e"/>
    </defs>
    <g clip-path="url(#pca2b95b379)">
     <use xlink:href="#mb84ae11fc4" x="0" y="216" style="fill: #ff7f0e; stroke: #ff7f0e"/>
    </g>
   </g>
   <g id="PolyCollection_3">
    <defs>
     <path id="me1a7ecf944" d="M 69.218182 -32.293563 
L 69.218182 -25.11161 
L 85.237321 -26.791445 
L 101.256459 -28.21883 
L 117.275598 -33.356226 
L 133.294737 -23.760002 
L 149.313876 -23.760037 
L 165.333014 -24.150354 
L 181.352153 -23.760004 
L 197.371292 -23.760197 
L 213.390431 -23.804284 
L 229.409569 -23.77757 
L 245.428708 -23.76078 
L 261.447847 -23.76001 
L 277.466986 -23.760106 
L 293.486124 -23.760007 
L 309.505263 -23.760069 
L 325.524402 -26.969027 
L 341.543541 -29.068298 
L 357.562679 -23.760018 
L 373.581818 -23.760002 
L 373.581818 -28.442876 
L 373.581818 -28.442876 
L 357.562679 -34.561491 
L 341.543541 -54.236848 
L 325.524402 -63.567291 
L 309.505263 -34.511185 
L 293.486124 -32.187921 
L 277.466986 -28.577987 
L 261.447847 -23.760209 
L 245.428708 -23.764544 
L 229.409569 -23.777573 
L 213.390431 -23.804301 
L 197.371292 -23.76022 
L 181.352153 -23.760006 
L 165.333014 -24.150354 
L 149.313876 -23.760042 
L 133.294737 -23.760007 
L 117.275598 -47.177411 
L 101.256459 -34.130816 
L 85.237321 -32.635511 
L 69.218182 -32.293563 
z
" style="stroke: #2ca02c"/>
    </defs>
    <g clip-path="url(#pca2b95b379)">
     <use xlink:href="#me1a7ecf944" x="0" y="216" style="fill: #2ca02c; stroke: #2ca02c"/>
    </g>
   </g>
   <g id="PolyCollection_4">
    <defs>
     <path id="m17c3a16090" d="M 69.218182 -44.657656 
L 69.218182 -32.293563 
L 85.237321 -32.635511 
L 101.256459 -34.130816 
L 117.275598 -47.177411 
L 133.294737 -23.760007 
L 149.313876 -23.760042 
L 165.333014 -24.150354 
L 181.352153 -23.760006 
L 197.371292 -23.76022 
L 213.390431 -23.804301 
L 229.409569 -23.777573 
L 245.428708 -23.764544 
L 261.447847 -23.760209 
L 277.466986 -28.577987 
L 293.486124 -32.187921 
L 309.505263 -34.511185 
L 325.524402 -63.567291 
L 341.543541 -54.236848 
L 357.562679 -34.561491 
L 373.581818 -28.442876 
L 373.581818 -42.025585 
L 373.581818 -42.025585 
L 357.562679 -49.954876 
L 341.543541 -62.295298 
L 325.524402 -63.567346 
L 309.505263 -53.712015 
L 293.486124 -50.767095 
L 277.466986 -51.233439 
L 261.447847 -53.333658 
L 245.428708 -50.488258 
L 229.409569 -45.436747 
L 213.390431 -66.372414 
L 197.371292 -60.500191 
L 181.352153 -56.900035 
L 165.333014 -55.717832 
L 149.313876 -54.888773 
L 133.294737 -68.39962 
L 117.275598 -63.849846 
L 101.256459 -41.019036 
L 85.237321 -50.261429 
L 69.218182 -44.657656 
z
" style="stroke: #d62728"/>
    </defs>
    <g clip-path="url(#pca2b95b379)">
     <use xlink:href="#m17c3a16090" x="0" y="216" style="fill: #d62728; stroke: #d62728"/>
    </g>
   </g>
   <g id="PolyCollection_5">
    <defs>
     <path id="mc288756870" d="M 69.218182 -44.657656 
L 69.218182 -44.657656 
L 85.237321 -50.261429 
L 101.256459 -41.019036 
L 117.275598 -63.849846 
L 133.294737 -68.39962 
L 149.313876 -54.888773 
L 165.333014 -55.717832 
L 181.352153 -56.900035 
L 197.371292 -60.500191 
L 213.390431 -66.372414 
L 229.409569 -45.436747 
L 245.428708 -50.488258 
L 261.447847 -53.333658 
L 277.466986 -51.233439 
L 293.486124 -50.767095 
L 309.505263 -53.712015 
L 325.524402 -63.567346 
L 341.543541 -62.295298 
L 357.562679 -49.954876 
L 373.581818 -42.025585 
L 373.581818 -42.026643 
L 373.581818 -42.026643 
L 357.562679 -52.76083 
L 341.543541 -62.295298 
L 325.524402 -63.567443 
L 309.505263 -62.370407 
L 293.486124 -65.23232 
L 277.466986 -64.84516 
L 261.447847 -71.581398 
L 245.428708 -68.213703 
L 229.409569 -54.83623 
L 213.390431 -76.437575 
L 197.371292 -68.980133 
L 181.352153 -69.704326 
L 165.333014 -69.584886 
L 149.313876 -63.17158 
L 133.294737 -79.246566 
L 117.275598 -83.755452 
L 101.256459 -62.14921 
L 85.237321 -50.261478 
L 69.218182 -44.657656 
z
" style="stroke: #9467bd"/>
    </defs>
    <g clip-path="url(#pca2b95b379)">
     <use xlink:href="#mc288756870" x="0" y="216" style="fill: #9467bd; stroke: #9467bd"/>
    </g>
   </g>
   <g id="PolyCollection_6">
    <defs>
     <path id="mc06b30609c" d="M 69.218182 -61.143112 
L 69.218182 -44.657656 
L 85.237321 -50.261478 
L 101.256459 -62.14921 
L 117.275598 -83.755452 
L 133.294737 -79.246566 
L 149.313876 -63.17158 
L 165.333014 -69.584886 
L 181.352153 -69.704326 
L 197.371292 -68.980133 
L 213.390431 -76.437575 
L 229.409569 -54.83623 
L 245.428708 -68.213703 
L 261.447847 -71.581398 
L 277.466986 -64.84516 
L 293.486124 -65.23232 
L 309.505263 -62.370407 
L 325.524402 -63.567443 
L 341.543541 -62.295298 
L 357.562679 -52.76083 
L 373.581818 -42.026643 
L 373.581818 -68.642551 
L 373.581818 -68.642551 
L 357.562679 -84.78372 
L 341.543541 -78.185852 
L 325.524402 -82.092751 
L 309.505263 -75.868244 
L 293.486124 -73.220985 
L 277.466986 -72.748277 
L 261.447847 -81.269271 
L 245.428708 -68.21448 
L 229.409569 -55.173415 
L 213.390431 -80.837426 
L 197.371292 -72.683471 
L 181.352153 -81.309225 
L 165.333014 -75.33982 
L 149.313876 -63.268112 
L 133.294737 -86.024539 
L 117.275598 -102.282287 
L 101.256459 -109.017396 
L 85.237321 -63.221189 
L 69.218182 -61.143112 
z
" style="stroke: #8c564b"/>
    </defs>
    <g clip-path="url(#pca2b95b379)">
     <use xlink:href="#mc06b30609c" x="0" y="216" style="fill: #8c564b; stroke: #8c564b"/>
    </g>
   </g>
   <g id="PolyCollection_7">
    <defs>
     <path id="m0744feda23" d="M 69.218182 -61.143112 
L 69.218182 -61.143112 
L 85.237321 -63.221189 
L 101.256459 -109.017396 
L 117.275598 -102.282287 
L 133.294737 -86.024539 
L 149.313876 -63.268112 
L 165.333014 -75.33982 
L 181.352153 -81.309225 
L 197.371292 -72.683471 
L 213.390431 -80.837426 
L 229.409569 -55.173415 
L 245.428708 -68.21448 
L 261.447847 -81.269271 
L 277.466986 -72.748277 
L 293.486124 -73.220985 
L 309.505263 -75.868244 
L 325.524402 -82.092751 
L 341.543541 -78.185852 
L 357.562679 -84.78372 
L 373.581818 -68.642551 
L 373.581818 -80.644302 
L 373.581818 -80.644302 
L 357.562679 -92.909012 
L 341.543541 -78.185852 
L 325.524402 -92.485668 
L 309.505263 -93.416842 
L 293.486124 -88.996966 
L 277.466986 -88.354364 
L 261.447847 -95.695115 
L 245.428708 -83.672021 
L 229.409569 -55.173423 
L 213.390431 -90.61236 
L 197.371292 -98.178628 
L 181.352153 -107.372079 
L 165.333014 -108.707264 
L 149.313876 -89.341144 
L 133.294737 -109.100954 
L 117.275598 -122.679395 
L 101.256459 -109.017649 
L 85.237321 -63.221326 
L 69.218182 -61.143112 
z
" style="stroke: #e377c2"/>
    </defs>
    <g clip-path="url(#pca2b95b379)">
     <use xlink:href="#m0744feda23" x="0" y="216" style="fill: #e377c2; stroke: #e377c2"/>
    </g>
   </g>
   <g id="PolyCollection_8">
    <defs>
     <path id="mba871f0d6e" d="M 69.218182 -67.140849 
L 69.218182 -61.143112 
L 85.237321 -63.221326 
L 101.256459 -109.017649 
L 117.275598 -122.679395 
L 133.294737 -109.100954 
L 149.313876 -89.341144 
L 165.333014 -108.707264 
L 181.352153 -107.372079 
L 197.371292 -98.178628 
L 213.390431 -90.61236 
L 229.409569 -55.173423 
L 245.428708 -83.672021 
L 261.447847 -95.695115 
L 277.466986 -88.354364 
L 293.486124 -88.996966 
L 309.505263 -93.416842 
L 325.524402 -92.485668 
L 341.543541 -78.185852 
L 357.562679 -92.909012 
L 373.581818 -80.644302 
L 373.581818 -80.644302 
L 373.581818 -80.644302 
L 357.562679 -92.909021 
L 341.543541 -79.867068 
L 325.524402 -93.17829 
L 309.505263 -93.416844 
L 293.486124 -88.99697 
L 277.466986 -88.35438 
L 261.447847 -95.69512 
L 245.428708 -83.672021 
L 229.409569 -55.173423 
L 213.390431 -90.612363 
L 197.371292 -98.178632 
L 181.352153 -107.37208 
L 165.333014 -108.707264 
L 149.313876 -89.341145 
L 133.294737 -109.100954 
L 117.275598 -122.679395 
L 101.256459 -109.017654 
L 85.237321 -63.981561 
L 69.218182 -67.140849 
z
" style="stroke: #7f7f7f"/>
    </defs>
    <g clip-path="url(#pca2b95b379)">
     <use xlink:href="#mba871f0d6e" x="0" y="216" style="fill: #7f7f7f; stroke: #7f7f7f"/>
    </g>
   </g>
   <g id="PolyCollection_9">
    <defs>
     <path id="m1a357c513e" d="M 69.218182 -81.581203 
L 69.218182 -67.140849 
L 85.237321 -63.981561 
L 101.256459 -109.017654 
L 117.275598 -122.679395 
L 133.294737 -109.100954 
L 149.313876 -89.341145 
L 165.333014 -108.707264 
L 181.352153 -107.37208 
L 197.371292 -98.178632 
L 213.390431 -90.612363 
L 229.409569 -55.173423 
L 245.428708 -83.672021 
L 261.447847 -95.69512 
L 277.466986 -88.35438 
L 293.486124 -88.99697 
L 309.505263 -93.416844 
L 325.524402 -93.17829 
L 341.543541 -79.867068 
L 357.562679 -92.909021 
L 373.581818 -80.644302 
L 373.581818 -90.033712 
L 373.581818 -90.033712 
L 357.562679 -123.785499 
L 341.543541 -121.276562 
L 325.524402 -138.754543 
L 309.505263 -118.751965 
L 293.486124 -97.026668 
L 277.466986 -90.298887 
L 261.447847 -95.695147 
L 245.428708 -83.672025 
L 229.409569 -55.173424 
L 213.390431 -90.612396 
L 197.371292 -98.178654 
L 181.352153 -107.372081 
L 165.333014 -108.708176 
L 149.313876 -89.341193 
L 133.294737 -112.189713 
L 117.275598 -122.679395 
L 101.256459 -109.018562 
L 85.237321 -81.996282 
L 69.218182 -81.581203 
z
" style="stroke: #bcbd22"/>
    </defs>
    <g clip-path="url(#pca2b95b379)">
     <use xlink:href="#m1a357c513e" x="0" y="216" style="fill: #bcbd22; stroke: #bcbd22"/>
    </g>
   </g>
   <g id="PolyCollection_10">
    <defs>
     <path id="m7305b28277" d="M 69.218182 -91.766789 
L 69.218182 -81.581203 
L 85.237321 -81.996282 
L 101.256459 -109.018562 
L 117.275598 -122.679395 
L 133.294737 -112.189713 
L 149.313876 -89.341193 
L 165.333014 -108.708176 
L 181.352153 -107.372081 
L 197.371292 -98.178654 
L 213.390431 -90.612396 
L 229.409569 -55.173424 
L 245.428708 -83.672025 
L 261.447847 -95.695147 
L 277.466986 -90.298887 
L 293.486124 -97.026668 
L 309.505263 -118.751965 
L 325.524402 -138.754543 
L 341.543541 -121.276562 
L 357.562679 -123.785499 
L 373.581818 -90.033712 
L 373.581818 -92.237449 
L 373.581818 -92.237449 
L 357.562679 -128.029565 
L 341.543541 -128.263683 
L 325.524402 -139.522258 
L 309.505263 -118.751975 
L 293.486124 -97.026681 
L 277.466986 -90.298919 
L 261.447847 -95.695149 
L 245.428708 -83.672025 
L 229.409569 -55.173425 
L 213.390431 -90.612424 
L 197.371292 -98.178683 
L 181.352153 -107.372083 
L 165.333014 -108.709292 
L 149.313876 -89.371975 
L 133.294737 -112.189716 
L 117.275598 -122.679395 
L 101.256459 -109.020959 
L 85.237321 -88.926121 
L 69.218182 -91.766789 
z
" style="stroke: #17becf"/>
    </defs>
    <g clip-path="url(#pca2b95b379)">
     <use xlink:href="#m7305b28277" x="0" y="216" style="fill: #17becf; stroke: #17becf"/>
    </g>
   </g>
   <g id="PolyCollection_11">
    <defs>
     <path id="ma1eca8dbac" d="M 69.218182 -103.257262 
L 69.218182 -91.766789 
L 85.237321 -88.926121 
L 101.256459 -109.020959 
L 117.275598 -122.679395 
L 133.294737 -112.189716 
L 149.313876 -89.371975 
L 165.333014 -108.709292 
L 181.352153 -107.372083 
L 197.371292 -98.178683 
L 213.390431 -90.612424 
L 229.409569 -55.173425 
L 245.428708 -83.672025 
L 261.447847 -95.695149 
L 277.466986 -90.298919 
L 293.486124 -97.026681 
L 309.505263 -118.751975 
L 325.524402 -139.522258 
L 341.543541 -128.263683 
L 357.562679 -128.029565 
L 373.581818 -92.237449 
L 373.581818 -94.91397 
L 373.581818 -94.91397 
L 357.562679 -129.132794 
L 341.543541 -131.442795 
L 325.524402 -143.287501 
L 309.505263 -126.960413 
L 293.486124 -104.339273 
L 277.466986 -92.551364 
L 261.447847 -108.569984 
L 245.428708 -100.99148 
L 229.409569 -81.402387 
L 213.390431 -94.580359 
L 197.371292 -98.17873 
L 181.352153 -107.37227 
L 165.333014 -109.741137 
L 149.313876 -90.67943 
L 133.294737 -112.189741 
L 117.275598 -126.951912 
L 101.256459 -123.782726 
L 85.237321 -99.825691 
L 69.218182 -103.257262 
z
" style="stroke: #1f77b4"/>
    </defs>
    <g clip-path="url(#pca2b95b379)">
     <use xlink:href="#ma1eca8dbac" x="0" y="216" style="fill: #1f77b4; stroke: #1f77b4"/>
    </g>
   </g>
   <g id="PolyCollection_12">
    <defs>
     <path id="mb8eded795c" d="M 69.218182 -103.257262 
L 69.218182 -103.257262 
L 85.237321 -99.825691 
L 101.256459 -123.782726 
L 117.275598 -126.951912 
L 133.294737 -112.189741 
L 149.313876 -90.67943 
L 165.333014 -109.741137 
L 181.352153 -107.37227 
L 197.371292 -98.17873 
L 213.390431 -94.580359 
L 229.409569 -81.402387 
L 245.428708 -100.99148 
L 261.447847 -108.569984 
L 277.466986 -92.551364 
L 293.486124 -104.339273 
L 309.505263 -126.960413 
L 325.524402 -143.287501 
L 341.543541 -131.442795 
L 357.562679 -129.132794 
L 373.581818 -94.91397 
L 373.581818 -94.913971 
L 373.581818 -94.913971 
L 357.562679 -129.132796 
L 341.543541 -131.442795 
L 325.524402 -143.287536 
L 309.505263 -126.96045 
L 293.486124 -106.794189 
L 277.466986 -95.587834 
L 261.447847 -118.363295 
L 245.428708 -116.655463 
L 229.409569 -118.558062 
L 213.390431 -103.880986 
L 197.371292 -109.57415 
L 181.352153 -115.931434 
L 165.333014 -119.033886 
L 149.313876 -99.398059 
L 133.294737 -112.189746 
L 117.275598 -139.688148 
L 101.256459 -123.782771 
L 85.237321 -99.825711 
L 69.218182 -103.257262 
z
" style="stroke: #ff7f0e"/>
    </defs>
    <g clip-path="url(#pca2b95b379)">
     <use xlink:href="#mb8eded795c" x="0" y="216" style="fill: #ff7f0e; stroke: #ff7f0e"/>
    </g>
   </g>
   <g id="PolyCollection_13">
    <defs>
     <path id="m45bd9f2aef" d="M 69.218182 -103.257262 
L 69.218182 -103.257262 
L 85.237321 -99.825711 
L 101.256459 -123.782771 
L 117.275598 -139.688148 
L 133.294737 -112.189746 
L 149.313876 -99.398059 
L 165.333014 -119.033886 
L 181.352153 -115.931434 
L 197.371292 -109.57415 
L 213.390431 -103.880986 
L 229.409569 -118.558062 
L 245.428708 -116.655463 
L 261.447847 -118.363295 
L 277.466986 -95.587834 
L 293.486124 -106.794189 
L 309.505263 -126.96045 
L 325.524402 -143.287536 
L 341.543541 -131.442795 
L 357.562679 -129.132796 
L 373.581818 -94.913971 
L 373.581818 -105.811456 
L 373.581818 -105.811456 
L 357.562679 -129.56134 
L 341.543541 -147.457881 
L 325.524402 -151.06167 
L 309.505263 -131.761891 
L 293.486124 -124.730574 
L 277.466986 -115.128352 
L 261.447847 -131.328126 
L 245.428708 -121.233942 
L 229.409569 -118.558065 
L 213.390431 -106.417814 
L 197.371292 -109.574211 
L 181.352153 -116.085269 
L 165.333014 -119.033886 
L 149.313876 -101.74572 
L 133.294737 -112.190598 
L 117.275598 -139.688148 
L 101.256459 -123.78282 
L 85.237321 -99.825729 
L 69.218182 -103.257262 
z
" style="stroke: #2ca02c"/>
    </defs>
    <g clip-path="url(#pca2b95b379)">
     <use xlink:href="#m45bd9f2aef" x="0" y="216" style="fill: #2ca02c; stroke: #2ca02c"/>
    </g>
   </g>
   <g id="PolyCollection_14">
    <defs>
     <path id="m8d33be06e8" d="M 69.218182 -128.586735 
L 69.218182 -103.257262 
L 85.237321 -99.825729 
L 101.256459 -123.78282 
L 117.275598 -139.688148 
L 133.294737 -112.190598 
L 149.313876 -101.74572 
L 165.333014 -119.033886 
L 181.352153 -116.085269 
L 197.371292 -109.574211 
L 213.390431 -106.417814 
L 229.409569 -118.558065 
L 245.428708 -121.233942 
L 261.447847 -131.328126 
L 277.466986 -115.128352 
L 293.486124 -124.730574 
L 309.505263 -131.761891 
L 325.524402 -151.06167 
L 341.543541 -147.457881 
L 357.562679 -129.56134 
L 373.581818 -105.811456 
L 373.581818 -123.064539 
L 373.581818 -123.064539 
L 357.562679 -137.968685 
L 341.543541 -157.880387 
L 325.524402 -159.432737 
L 309.505263 -151.601672 
L 293.486124 -140.57226 
L 277.466986 -128.351803 
L 261.447847 -136.094784 
L 245.428708 -121.233949 
L 229.409569 -118.558074 
L 213.390431 -110.969335 
L 197.371292 -118.635071 
L 181.352153 -129.209365 
L 165.333014 -126.540363 
L 149.313876 -113.101421 
L 133.294737 -117.057659 
L 117.275598 -152.647535 
L 101.256459 -129.935514 
L 85.237321 -106.054143 
L 69.218182 -128.586735 
z
" style="stroke: #d62728"/>
    </defs>
    <g clip-path="url(#pca2b95b379)">
     <use xlink:href="#m8d33be06e8" x="0" y="216" style="fill: #d62728; stroke: #d62728"/>
    </g>
   </g>
   <g id="PolyCollection_15">
    <defs>
     <path id="m5f765725e2" d="M 69.218182 -138.230941 
L 69.218182 -128.586735 
L 85.237321 -106.054143 
L 101.256459 -129.935514 
L 117.275598 -152.647535 
L 133.294737 -117.057659 
L 149.313876 -113.101421 
L 165.333014 -126.540363 
L 181.352153 -129.209365 
L 197.371292 -118.635071 
L 213.390431 -110.969335 
L 229.409569 -118.558074 
L 245.428708 -121.233949 
L 261.447847 -136.094784 
L 277.466986 -128.351803 
L 293.486124 -140.57226 
L 309.505263 -151.601672 
L 325.524402 -159.432737 
L 341.543541 -157.880387 
L 357.562679 -137.968685 
L 373.581818 -123.064539 
L 373.581818 -123.064541 
L 373.581818 -123.064541 
L 357.562679 -137.968688 
L 341.543541 -157.880387 
L 325.524402 -159.432792 
L 309.505263 -151.601698 
L 293.486124 -140.573604 
L 277.466986 -136.275704 
L 261.447847 -136.09485 
L 245.428708 -121.233951 
L 229.409569 -118.558077 
L 213.390431 -111.956208 
L 197.371292 -119.533154 
L 181.352153 -134.047213 
L 165.333014 -141.542156 
L 149.313876 -130.03188 
L 133.294737 -142.347909 
L 117.275598 -167.251656 
L 101.256459 -134.95176 
L 85.237321 -115.443856 
L 69.218182 -138.230941 
z
" style="stroke: #9467bd"/>
    </defs>
    <g clip-path="url(#pca2b95b379)">
     <use xlink:href="#m5f765725e2" x="0" y="216" style="fill: #9467bd; stroke: #9467bd"/>
    </g>
   </g>
   <g id="PolyCollection_16">
    <defs>
     <path id="mced7e09a64" d="M 69.218182 -147.735164 
L 69.218182 -138.230941 
L 85.237321 -115.443856 
L 101.256459 -134.95176 
L 117.275598 -167.251656 
L 133.294737 -142.347909 
L 149.313876 -130.03188 
L 165.333014 -141.542156 
L 181.352153 -134.047213 
L 197.371292 -119.533154 
L 213.390431 -111.956208 
L 229.409569 -118.558077 
L 245.428708 -121.233951 
L 261.447847 -136.09485 
L 277.466986 -136.275704 
L 293.486124 -140.573604 
L 309.505263 -151.601698 
L 325.524402 -159.432792 
L 341.543541 -157.880387 
L 357.562679 -137.968688 
L 373.581818 -123.064541 
L 373.581818 -123.064541 
L 373.581818 -123.064541 
L 357.562679 -137.968688 
L 341.543541 -157.880387 
L 325.524402 -159.432827 
L 309.505263 -151.601701 
L 293.486124 -140.575917 
L 277.466986 -136.27799 
L 261.447847 -136.094938 
L 245.428708 -121.233953 
L 229.409569 -118.558082 
L 213.390431 -111.95622 
L 197.371292 -119.533169 
L 181.352153 -134.047215 
L 165.333014 -141.542156 
L 149.313876 -130.031883 
L 133.294737 -142.347915 
L 117.275598 -171.882907 
L 101.256459 -146.931633 
L 85.237321 -128.306168 
L 69.218182 -147.735164 
z
" style="stroke: #8c564b"/>
    </defs>
    <g clip-path="url(#pca2b95b379)">
     <use xlink:href="#mced7e09a64" x="0" y="216" style="fill: #8c564b; stroke: #8c564b"/>
    </g>
   </g>
   <g id="PolyCollection_17">
    <defs>
     <path id="mec023d35cf" d="M 69.218182 -159.247786 
L 69.218182 -147.735164 
L 85.237321 -128.306168 
L 101.256459 -146.931633 
L 117.275598 -171.882907 
L 133.294737 -142.347915 
L 149.313876 -130.031883 
L 165.333014 -141.542156 
L 181.352153 -134.047215 
L 197.371292 -119.533169 
L 213.390431 -111.95622 
L 229.409569 -118.558082 
L 245.428708 -121.233953 
L 261.447847 -136.094938 
L 277.466986 -136.27799 
L 293.486124 -140.575917 
L 309.505263 -151.601701 
L 325.524402 -159.432827 
L 341.543541 -157.880387 
L 357.562679 -137.968688 
L 373.581818 -123.064541 
L 373.581818 -146.692235 
L 373.581818 -146.692235 
L 357.562679 -156.716782 
L 341.543541 -164.056885 
L 325.524402 -167.475403 
L 309.505263 -162.215957 
L 293.486124 -152.75572 
L 277.466986 -153.814159 
L 261.447847 -166.466597 
L 245.428708 -164.053932 
L 229.409569 -169.607768 
L 213.390431 -164.58962 
L 197.371292 -161.929361 
L 181.352153 -172.541823 
L 165.333014 -171.697831 
L 149.313876 -160.283711 
L 133.294737 -160.658897 
L 117.275598 -171.882907 
L 101.256459 -161.957919 
L 85.237321 -143.64152 
L 69.218182 -159.247786 
z
" style="stroke: #e377c2"/>
    </defs>
    <g clip-path="url(#pca2b95b379)">
     <use xlink:href="#mec023d35cf" x="0" y="216" style="fill: #e377c2; stroke: #e377c2"/>
    </g>
   </g>
   <g id="PolyCollection_18">
    <defs>
     <path id="mfdb5d25280" d="M 69.218182 -177.754826 
L 69.218182 -159.247786 
L 85.237321 -143.64152 
L 101.256459 -161.957919 
L 117.275598 -171.882907 
L 133.294737 -160.658897 
L 149.313876 -160.283711 
L 165.333014 -171.697831 
L 181.352153 -172.541823 
L 197.371292 -161.929361 
L 213.390431 -164.58962 
L 229.409569 -169.607768 
L 245.428708 -164.053932 
L 261.447847 -166.466597 
L 277.466986 -153.814159 
L 293.486124 -152.75572 
L 309.505263 -162.215957 
L 325.524402 -167.475403 
L 341.543541 -164.056885 
L 357.562679 -156.716782 
L 373.581818 -146.692235 
L 373.581818 -171.905877 
L 373.581818 -171.905877 
L 357.562679 -175.261609 
L 341.543541 -172.148561 
L 325.524402 -172.459934 
L 309.505263 -163.299277 
L 293.486124 -163.850852 
L 277.466986 -166.51613 
L 261.447847 -169.532696 
L 245.428708 -173.28215 
L 229.409569 -169.607776 
L 213.390431 -168.191023 
L 197.371292 -165.263716 
L 181.352153 -174.166813 
L 165.333014 -171.844821 
L 149.313876 -166.584897 
L 133.294737 -168.132695 
L 117.275598 -175.141628 
L 101.256459 -181.440712 
L 85.237321 -178.319602 
L 69.218182 -177.754826 
z
" style="stroke: #7f7f7f"/>
    </defs>
    <g clip-path="url(#pca2b95b379)">
     <use xlink:href="#mfdb5d25280" x="0" y="216" style="fill: #7f7f7f; stroke: #7f7f7f"/>
    </g>
   </g>
   <g id="PolyCollection_19">
    <defs>
     <path id="m2cb9c4bc2c" d="M 69.218182 -182.127724 
L 69.218182 -177.754826 
L 85.237321 -178.319602 
L 101.256459 -181.440712 
L 117.275598 -175.141628 
L 133.294737 -168.132695 
L 149.313876 -166.584897 
L 165.333014 -171.844821 
L 181.352153 -174.166813 
L 197.371292 -165.263716 
L 213.390431 -168.191023 
L 229.409569 -169.607776 
L 245.428708 -173.28215 
L 261.447847 -169.532696 
L 277.466986 -166.51613 
L 293.486124 -163.850852 
L 309.505263 -163.299277 
L 325.524402 -172.459934 
L 341.543541 -172.148561 
L 357.562679 -175.261609 
L 373.581818 -171.905877 
L 373.581818 -179.148204 
L 373.581818 -179.148204 
L 357.562679 -182.126919 
L 341.543541 -182.16 
L 325.524402 -182.126903 
L 309.505263 -182.126917 
L 293.486124 -182.126919 
L 277.466986 -182.126914 
L 261.447847 -178.508713 
L 245.428708 -179.249176 
L 229.409569 -175.222465 
L 213.390431 -177.602606 
L 197.371292 -173.562887 
L 181.352153 -174.698548 
L 165.333014 -176.078541 
L 149.313876 -177.539986 
L 133.294737 -180.703252 
L 117.275598 -175.141628 
L 101.256459 -182.126878 
L 85.237321 -182.126886 
L 69.218182 -182.127724 
z
" style="stroke: #bcbd22"/>
    </defs>
    <g clip-path="url(#pca2b95b379)">
     <use xlink:href="#m2cb9c4bc2c" x="0" y="216" style="fill: #bcbd22; stroke: #bcbd22"/>
    </g>
   </g>
   <g id="PolyCollection_20">
    <defs>
     <path id="m26b68e67f4" d="M 69.218182 -182.127724 
L 69.218182 -182.127724 
L 85.237321 -182.126886 
L 101.256459 -182.126878 
L 117.275598 -175.141628 
L 133.294737 -180.703252 
L 149.313876 -177.539986 
L 165.333014 -176.078541 
L 181.352153 -174.698548 
L 197.371292 -173.562887 
L 213.390431 -177.602606 
L 229.409569 -175.222465 
L 245.428708 -179.249176 
L 261.447847 -178.508713 
L 277.466986 -182.126914 
L 293.486124 -182.126919 
L 309.505263 -182.126917 
L 325.524402 -182.126903 
L 341.543541 -182.16 
L 357.562679 -182.126919 
L 373.581818 -179.148204 
L 373.581818 -182.126921 
L 373.581818 -182.126921 
L 357.562679 -182.126921 
L 341.543541 -182.16 
L 325.524402 -182.126921 
L 309.505263 -182.126921 
L 293.486124 -182.126921 
L 277.466986 -182.126921 
L 261.447847 -182.126921 
L 245.428708 -182.126921 
L 229.409569 -182.126921 
L 213.390431 -182.126921 
L 197.371292 -182.126921 
L 181.352153 -182.126921 
L 165.333014 -182.126983 
L 149.313876 -182.126921 
L 133.294737 -182.126921 
L 117.275598 -182.127327 
L 101.256459 -182.126921 
L 85.237321 -182.126921 
L 69.218182 -182.127724 
z
" style="stroke: #17becf"/>
    </defs>
    <g clip-path="url(#pca2b95b379)">
     <use xlink:href="#m26b68e67f4" x="0" y="216" style="fill: #17becf; stroke: #17becf"/>
    </g>
   </g>
   <g id="matplotlib.axis_1">
    <g id="xtick_1">
     <g id="line2d_1">
      <defs>
       <path id="m16e0d38205" d="M 0 0 
L 0 3.5 
" style="stroke: #000000; stroke-width: 0.8"/>
      </defs>
      <g>
       <use xlink:href="#m16e0d38205" x="93.24689" y="192.24" style="stroke: #000000; stroke-width: 0.8"/>
      </g>
     </g>
     <g id="text_1">
      <!-- 2.5 -->
      <g transform="translate(85.295327 206.838437) scale(0.1 -0.1)">
       <defs>
        <path id="DejaVuSans-32" d="M 1228 531 
L 3431 531 
L 3431 0 
L 469 0 
L 469 531 
Q 828 903 1448 1529 
Q 2069 2156 2228 2338 
Q 2531 2678 2651 2914 
Q 2772 3150 2772 3378 
Q 2772 3750 2511 3984 
Q 2250 4219 1831 4219 
Q 1534 4219 1204 4116 
Q 875 4013 500 3803 
L 500 4441 
Q 881 4594 1212 4672 
Q 1544 4750 1819 4750 
Q 2544 4750 2975 4387 
Q 3406 4025 3406 3419 
Q 3406 3131 3298 2873 
Q 3191 2616 2906 2266 
Q 2828 2175 2409 1742 
Q 1991 1309 1228 531 
z
" transform="scale(0.015625)"/>
        <path id="DejaVuSans-2e" d="M 684 794 
L 1344 794 
L 1344 0 
L 684 0 
L 684 794 
z
" transform="scale(0.015625)"/>
        <path id="DejaVuSans-35" d="M 691 4666 
L 3169 4666 
L 3169 4134 
L 1269 4134 
L 1269 2991 
Q 1406 3038 1543 3061 
Q 1681 3084 1819 3084 
Q 2600 3084 3056 2656 
Q 3513 2228 3513 1497 
Q 3513 744 3044 326 
Q 2575 -91 1722 -91 
Q 1428 -91 1123 -41 
Q 819 9 494 109 
L 494 744 
Q 775 591 1075 516 
Q 1375 441 1709 441 
Q 2250 441 2565 725 
Q 2881 1009 2881 1497 
Q 2881 1984 2565 2268 
Q 2250 2553 1709 2553 
Q 1456 2553 1204 2497 
Q 953 2441 691 2322 
L 691 4666 
z
" transform="scale(0.015625)"/>
       </defs>
       <use xlink:href="#DejaVuSans-32"/>
       <use xlink:href="#DejaVuSans-2e" x="63.623047"/>
       <use xlink:href="#DejaVuSans-35" x="95.410156"/>
      </g>
     </g>
    </g>
    <g id="xtick_2">
     <g id="line2d_2">
      <g>
       <use xlink:href="#m16e0d38205" x="133.294737" y="192.24" style="stroke: #000000; stroke-width: 0.8"/>
      </g>
     </g>
     <g id="text_2">
      <!-- 5.0 -->
      <g transform="translate(125.343174 206.838437) scale(0.1 -0.1)">
       <defs>
        <path id="DejaVuSans-30" d="M 2034 4250 
Q 1547 4250 1301 3770 
Q 1056 3291 1056 2328 
Q 1056 1369 1301 889 
Q 1547 409 2034 409 
Q 2525 409 2770 889 
Q 3016 1369 3016 2328 
Q 3016 3291 2770 3770 
Q 2525 4250 2034 4250 
z
M 2034 4750 
Q 2819 4750 3233 4129 
Q 3647 3509 3647 2328 
Q 3647 1150 3233 529 
Q 2819 -91 2034 -91 
Q 1250 -91 836 529 
Q 422 1150 422 2328 
Q 422 3509 836 4129 
Q 1250 4750 2034 4750 
z
" transform="scale(0.015625)"/>
       </defs>
       <use xlink:href="#DejaVuSans-35"/>
       <use xlink:href="#DejaVuSans-2e" x="63.623047"/>
       <use xlink:href="#DejaVuSans-30" x="95.410156"/>
      </g>
     </g>
    </g>
    <g id="xtick_3">
     <g id="line2d_3">
      <g>
       <use xlink:href="#m16e0d38205" x="173.342584" y="192.24" style="stroke: #000000; stroke-width: 0.8"/>
      </g>
     </g>
     <g id="text_3">
      <!-- 7.5 -->
      <g transform="translate(165.391021 206.838437) scale(0.1 -0.1)">
       <defs>
        <path id="DejaVuSans-37" d="M 525 4666 
L 3525 4666 
L 3525 4397 
L 1831 0 
L 1172 0 
L 2766 4134 
L 525 4134 
L 525 4666 
z
" transform="scale(0.015625)"/>
       </defs>
       <use xlink:href="#DejaVuSans-37"/>
       <use xlink:href="#DejaVuSans-2e" x="63.623047"/>
       <use xlink:href="#DejaVuSans-35" x="95.410156"/>
      </g>
     </g>
    </g>
    <g id="xtick_4">
     <g id="line2d_4">
      <g>
       <use xlink:href="#m16e0d38205" x="213.390431" y="192.24" style="stroke: #000000; stroke-width: 0.8"/>
      </g>
     </g>
     <g id="text_4">
      <!-- 10.0 -->
      <g transform="translate(202.257618 206.838437) scale(0.1 -0.1)">
       <defs>
        <path id="DejaVuSans-31" d="M 794 531 
L 1825 531 
L 1825 4091 
L 703 3866 
L 703 4441 
L 1819 4666 
L 2450 4666 
L 2450 531 
L 3481 531 
L 3481 0 
L 794 0 
L 794 531 
z
" transform="scale(0.015625)"/>
       </defs>
       <use xlink:href="#DejaVuSans-31"/>
       <use xlink:href="#DejaVuSans-30" x="63.623047"/>
       <use xlink:href="#DejaVuSans-2e" x="127.246094"/>
       <use xlink:href="#DejaVuSans-30" x="159.033203"/>
      </g>
     </g>
    </g>
    <g id="xtick_5">
     <g id="line2d_5">
      <g>
       <use xlink:href="#m16e0d38205" x="253.438278" y="192.24" style="stroke: #000000; stroke-width: 0.8"/>
      </g>
     </g>
     <g id="text_5">
      <!-- 12.5 -->
      <g transform="translate(242.305465 206.838437) scale(0.1 -0.1)">
       <use xlink:href="#DejaVuSans-31"/>
       <use xlink:href="#DejaVuSans-32" x="63.623047"/>
       <use xlink:href="#DejaVuSans-2e" x="127.246094"/>
       <use xlink:href="#DejaVuSans-35" x="159.033203"/>
      </g>
     </g>
    </g>
    <g id="xtick_6">
     <g id="line2d_6">
      <g>
       <use xlink:href="#m16e0d38205" x="293.486124" y="192.24" style="stroke: #000000; stroke-width: 0.8"/>
      </g>
     </g>
     <g id="text_6">
      <!-- 15.0 -->
      <g transform="translate(282.353312 206.838437) scale(0.1 -0.1)">
       <use xlink:href="#DejaVuSans-31"/>
       <use xlink:href="#DejaVuSans-35" x="63.623047"/>
       <use xlink:href="#DejaVuSans-2e" x="127.246094"/>
       <use xlink:href="#DejaVuSans-30" x="159.033203"/>
      </g>
     </g>
    </g>
    <g id="xtick_7">
     <g id="line2d_7">
      <g>
       <use xlink:href="#m16e0d38205" x="333.533971" y="192.24" style="stroke: #000000; stroke-width: 0.8"/>
      </g>
     </g>
     <g id="text_7">
      <!-- 17.5 -->
      <g transform="translate(322.401159 206.838437) scale(0.1 -0.1)">
       <use xlink:href="#DejaVuSans-31"/>
       <use xlink:href="#DejaVuSans-37" x="63.623047"/>
       <use xlink:href="#DejaVuSans-2e" x="127.246094"/>
       <use xlink:href="#DejaVuSans-35" x="159.033203"/>
      </g>
     </g>
    </g>
    <g id="xtick_8">
     <g id="line2d_8">
      <g>
       <use xlink:href="#m16e0d38205" x="373.581818" y="192.24" style="stroke: #000000; stroke-width: 0.8"/>
      </g>
     </g>
     <g id="text_8">
      <!-- 20.0 -->
      <g transform="translate(362.449006 206.838437) scale(0.1 -0.1)">
       <use xlink:href="#DejaVuSans-32"/>
       <use xlink:href="#DejaVuSans-30" x="63.623047"/>
       <use xlink:href="#DejaVuSans-2e" x="127.246094"/>
       <use xlink:href="#DejaVuSans-30" x="159.033203"/>
      </g>
     </g>
    </g>
    <g id="text_9">
     <!-- Rebalance Period -->
     <g transform="translate(178.210938 220.516562) scale(0.1 -0.1)">
      <defs>
       <path id="DejaVuSans-52" d="M 2841 2188 
Q 3044 2119 3236 1894 
Q 3428 1669 3622 1275 
L 4263 0 
L 3584 0 
L 2988 1197 
Q 2756 1666 2539 1819 
Q 2322 1972 1947 1972 
L 1259 1972 
L 1259 0 
L 628 0 
L 628 4666 
L 2053 4666 
Q 2853 4666 3247 4331 
Q 3641 3997 3641 3322 
Q 3641 2881 3436 2590 
Q 3231 2300 2841 2188 
z
M 1259 4147 
L 1259 2491 
L 2053 2491 
Q 2509 2491 2742 2702 
Q 2975 2913 2975 3322 
Q 2975 3731 2742 3939 
Q 2509 4147 2053 4147 
L 1259 4147 
z
" transform="scale(0.015625)"/>
       <path id="DejaVuSans-65" d="M 3597 1894 
L 3597 1613 
L 953 1613 
Q 991 1019 1311 708 
Q 1631 397 2203 397 
Q 2534 397 2845 478 
Q 3156 559 3463 722 
L 3463 178 
Q 3153 47 2828 -22 
Q 2503 -91 2169 -91 
Q 1331 -91 842 396 
Q 353 884 353 1716 
Q 353 2575 817 3079 
Q 1281 3584 2069 3584 
Q 2775 3584 3186 3129 
Q 3597 2675 3597 1894 
z
M 3022 2063 
Q 3016 2534 2758 2815 
Q 2500 3097 2075 3097 
Q 1594 3097 1305 2825 
Q 1016 2553 972 2059 
L 3022 2063 
z
" transform="scale(0.015625)"/>
       <path id="DejaVuSans-62" d="M 3116 1747 
Q 3116 2381 2855 2742 
Q 2594 3103 2138 3103 
Q 1681 3103 1420 2742 
Q 1159 2381 1159 1747 
Q 1159 1113 1420 752 
Q 1681 391 2138 391 
Q 2594 391 2855 752 
Q 3116 1113 3116 1747 
z
M 1159 2969 
Q 1341 3281 1617 3432 
Q 1894 3584 2278 3584 
Q 2916 3584 3314 3078 
Q 3713 2572 3713 1747 
Q 3713 922 3314 415 
Q 2916 -91 2278 -91 
Q 1894 -91 1617 61 
Q 1341 213 1159 525 
L 1159 0 
L 581 0 
L 581 4863 
L 1159 4863 
L 1159 2969 
z
" transform="scale(0.015625)"/>
       <path id="DejaVuSans-61" d="M 2194 1759 
Q 1497 1759 1228 1600 
Q 959 1441 959 1056 
Q 959 750 1161 570 
Q 1363 391 1709 391 
Q 2188 391 2477 730 
Q 2766 1069 2766 1631 
L 2766 1759 
L 2194 1759 
z
M 3341 1997 
L 3341 0 
L 2766 0 
L 2766 531 
Q 2569 213 2275 61 
Q 1981 -91 1556 -91 
Q 1019 -91 701 211 
Q 384 513 384 1019 
Q 384 1609 779 1909 
Q 1175 2209 1959 2209 
L 2766 2209 
L 2766 2266 
Q 2766 2663 2505 2880 
Q 2244 3097 1772 3097 
Q 1472 3097 1187 3025 
Q 903 2953 641 2809 
L 641 3341 
Q 956 3463 1253 3523 
Q 1550 3584 1831 3584 
Q 2591 3584 2966 3190 
Q 3341 2797 3341 1997 
z
" transform="scale(0.015625)"/>
       <path id="DejaVuSans-6c" d="M 603 4863 
L 1178 4863 
L 1178 0 
L 603 0 
L 603 4863 
z
" transform="scale(0.015625)"/>
       <path id="DejaVuSans-6e" d="M 3513 2113 
L 3513 0 
L 2938 0 
L 2938 2094 
Q 2938 2591 2744 2837 
Q 2550 3084 2163 3084 
Q 1697 3084 1428 2787 
Q 1159 2491 1159 1978 
L 1159 0 
L 581 0 
L 581 3500 
L 1159 3500 
L 1159 2956 
Q 1366 3272 1645 3428 
Q 1925 3584 2291 3584 
Q 2894 3584 3203 3211 
Q 3513 2838 3513 2113 
z
" transform="scale(0.015625)"/>
       <path id="DejaVuSans-63" d="M 3122 3366 
L 3122 2828 
Q 2878 2963 2633 3030 
Q 2388 3097 2138 3097 
Q 1578 3097 1268 2742 
Q 959 2388 959 1747 
Q 959 1106 1268 751 
Q 1578 397 2138 397 
Q 2388 397 2633 464 
Q 2878 531 3122 666 
L 3122 134 
Q 2881 22 2623 -34 
Q 2366 -91 2075 -91 
Q 1284 -91 818 406 
Q 353 903 353 1747 
Q 353 2603 823 3093 
Q 1294 3584 2113 3584 
Q 2378 3584 2631 3529 
Q 2884 3475 3122 3366 
z
" transform="scale(0.015625)"/>
       <path id="DejaVuSans-20" transform="scale(0.015625)"/>
       <path id="DejaVuSans-50" d="M 1259 4147 
L 1259 2394 
L 2053 2394 
Q 2494 2394 2734 2622 
Q 2975 2850 2975 3272 
Q 2975 3691 2734 3919 
Q 2494 4147 2053 4147 
L 1259 4147 
z
M 628 4666 
L 2053 4666 
Q 2838 4666 3239 4311 
Q 3641 3956 3641 3272 
Q 3641 2581 3239 2228 
Q 2838 1875 2053 1875 
L 1259 1875 
L 1259 0 
L 628 0 
L 628 4666 
z
" transform="scale(0.015625)"/>
       <path id="DejaVuSans-72" d="M 2631 2963 
Q 2534 3019 2420 3045 
Q 2306 3072 2169 3072 
Q 1681 3072 1420 2755 
Q 1159 2438 1159 1844 
L 1159 0 
L 581 0 
L 581 3500 
L 1159 3500 
L 1159 2956 
Q 1341 3275 1631 3429 
Q 1922 3584 2338 3584 
Q 2397 3584 2469 3576 
Q 2541 3569 2628 3553 
L 2631 2963 
z
" transform="scale(0.015625)"/>
       <path id="DejaVuSans-69" d="M 603 3500 
L 1178 3500 
L 1178 0 
L 603 0 
L 603 3500 
z
M 603 4863 
L 1178 4863 
L 1178 4134 
L 603 4134 
L 603 4863 
z
" transform="scale(0.015625)"/>
       <path id="DejaVuSans-6f" d="M 1959 3097 
Q 1497 3097 1228 2736 
Q 959 2375 959 1747 
Q 959 1119 1226 758 
Q 1494 397 1959 397 
Q 2419 397 2687 759 
Q 2956 1122 2956 1747 
Q 2956 2369 2687 2733 
Q 2419 3097 1959 3097 
z
M 1959 3584 
Q 2709 3584 3137 3096 
Q 3566 2609 3566 1747 
Q 3566 888 3137 398 
Q 2709 -91 1959 -91 
Q 1206 -91 779 398 
Q 353 888 353 1747 
Q 353 2609 779 3096 
Q 1206 3584 1959 3584 
z
" transform="scale(0.015625)"/>
       <path id="DejaVuSans-64" d="M 2906 2969 
L 2906 4863 
L 3481 4863 
L 3481 0 
L 2906 0 
L 2906 525 
Q 2725 213 2448 61 
Q 2172 -91 1784 -91 
Q 1150 -91 751 415 
Q 353 922 353 1747 
Q 353 2572 751 3078 
Q 1150 3584 1784 3584 
Q 2172 3584 2448 3432 
Q 2725 3281 2906 2969 
z
M 947 1747 
Q 947 1113 1208 752 
Q 1469 391 1925 391 
Q 2381 391 2643 752 
Q 2906 1113 2906 1747 
Q 2906 2381 2643 2742 
Q 2381 3103 1925 3103 
Q 1469 3103 1208 2742 
Q 947 2381 947 1747 
z
" transform="scale(0.015625)"/>
      </defs>
      <use xlink:href="#DejaVuSans-52"/>
      <use xlink:href="#DejaVuSans-65" x="64.982422"/>
      <use xlink:href="#DejaVuSans-62" x="126.505859"/>
      <use xlink:href="#DejaVuSans-61" x="189.982422"/>
      <use xlink:href="#DejaVuSans-6c" x="251.261719"/>
      <use xlink:href="#DejaVuSans-61" x="279.044922"/>
      <use xlink:href="#DejaVuSans-6e" x="340.324219"/>
      <use xlink:href="#DejaVuSans-63" x="403.703125"/>
      <use xlink:href="#DejaVuSans-65" x="458.683594"/>
      <use xlink:href="#DejaVuSans-20" x="520.207031"/>
      <use xlink:href="#DejaVuSans-50" x="551.994141"/>
      <use xlink:href="#DejaVuSans-65" x="608.671875"/>
      <use xlink:href="#DejaVuSans-72" x="670.195312"/>
      <use xlink:href="#DejaVuSans-69" x="711.308594"/>
      <use xlink:href="#DejaVuSans-6f" x="739.091797"/>
      <use xlink:href="#DejaVuSans-64" x="800.273438"/>
     </g>
    </g>
   </g>
   <g id="matplotlib.axis_2">
    <g id="ytick_1">
     <g id="line2d_9">
      <defs>
       <path id="md204f8c3ab" d="M 0 0 
L -3.5 0 
" style="stroke: #000000; stroke-width: 0.8"/>
      </defs>
      <g>
       <use xlink:href="#md204f8c3ab" x="54" y="192.24" style="stroke: #000000; stroke-width: 0.8"/>
      </g>
     </g>
     <g id="text_10">
      <!-- 0.0 -->
      <g transform="translate(31.096875 196.039219) scale(0.1 -0.1)">
       <use xlink:href="#DejaVuSans-30"/>
       <use xlink:href="#DejaVuSans-2e" x="63.623047"/>
       <use xlink:href="#DejaVuSans-30" x="95.410156"/>
      </g>
     </g>
    </g>
    <g id="ytick_2">
     <g id="line2d_10">
      <g>
       <use xlink:href="#md204f8c3ab" x="54" y="160.566616" style="stroke: #000000; stroke-width: 0.8"/>
      </g>
     </g>
     <g id="text_11">
      <!-- 0.2 -->
      <g transform="translate(31.096875 164.365835) scale(0.1 -0.1)">
       <use xlink:href="#DejaVuSans-30"/>
       <use xlink:href="#DejaVuSans-2e" x="63.623047"/>
       <use xlink:href="#DejaVuSans-32" x="95.410156"/>
      </g>
     </g>
    </g>
    <g id="ytick_3">
     <g id="line2d_11">
      <g>
       <use xlink:href="#md204f8c3ab" x="54" y="128.893232" style="stroke: #000000; stroke-width: 0.8"/>
      </g>
     </g>
     <g id="text_12">
      <!-- 0.4 -->
      <g transform="translate(31.096875 132.692451) scale(0.1 -0.1)">
       <defs>
        <path id="DejaVuSans-34" d="M 2419 4116 
L 825 1625 
L 2419 1625 
L 2419 4116 
z
M 2253 4666 
L 3047 4666 
L 3047 1625 
L 3713 1625 
L 3713 1100 
L 3047 1100 
L 3047 0 
L 2419 0 
L 2419 1100 
L 313 1100 
L 313 1709 
L 2253 4666 
z
" transform="scale(0.015625)"/>
       </defs>
       <use xlink:href="#DejaVuSans-30"/>
       <use xlink:href="#DejaVuSans-2e" x="63.623047"/>
       <use xlink:href="#DejaVuSans-34" x="95.410156"/>
      </g>
     </g>
    </g>
    <g id="ytick_4">
     <g id="line2d_12">
      <g>
       <use xlink:href="#md204f8c3ab" x="54" y="97.219848" style="stroke: #000000; stroke-width: 0.8"/>
      </g>
     </g>
     <g id="text_13">
      <!-- 0.6 -->
      <g transform="translate(31.096875 101.019066) scale(0.1 -0.1)">
       <defs>
        <path id="DejaVuSans-36" d="M 2113 2584 
Q 1688 2584 1439 2293 
Q 1191 2003 1191 1497 
Q 1191 994 1439 701 
Q 1688 409 2113 409 
Q 2538 409 2786 701 
Q 3034 994 3034 1497 
Q 3034 2003 2786 2293 
Q 2538 2584 2113 2584 
z
M 3366 4563 
L 3366 3988 
Q 3128 4100 2886 4159 
Q 2644 4219 2406 4219 
Q 1781 4219 1451 3797 
Q 1122 3375 1075 2522 
Q 1259 2794 1537 2939 
Q 1816 3084 2150 3084 
Q 2853 3084 3261 2657 
Q 3669 2231 3669 1497 
Q 3669 778 3244 343 
Q 2819 -91 2113 -91 
Q 1303 -91 875 529 
Q 447 1150 447 2328 
Q 447 3434 972 4092 
Q 1497 4750 2381 4750 
Q 2619 4750 2861 4703 
Q 3103 4656 3366 4563 
z
" transform="scale(0.015625)"/>
       </defs>
       <use xlink:href="#DejaVuSans-30"/>
       <use xlink:href="#DejaVuSans-2e" x="63.623047"/>
       <use xlink:href="#DejaVuSans-36" x="95.410156"/>
      </g>
     </g>
    </g>
    <g id="ytick_5">
     <g id="line2d_13">
      <g>
       <use xlink:href="#md204f8c3ab" x="54" y="65.546464" style="stroke: #000000; stroke-width: 0.8"/>
      </g>
     </g>
     <g id="text_14">
      <!-- 0.8 -->
      <g transform="translate(31.096875 69.345682) scale(0.1 -0.1)">
       <defs>
        <path id="DejaVuSans-38" d="M 2034 2216 
Q 1584 2216 1326 1975 
Q 1069 1734 1069 1313 
Q 1069 891 1326 650 
Q 1584 409 2034 409 
Q 2484 409 2743 651 
Q 3003 894 3003 1313 
Q 3003 1734 2745 1975 
Q 2488 2216 2034 2216 
z
M 1403 2484 
Q 997 2584 770 2862 
Q 544 3141 544 3541 
Q 544 4100 942 4425 
Q 1341 4750 2034 4750 
Q 2731 4750 3128 4425 
Q 3525 4100 3525 3541 
Q 3525 3141 3298 2862 
Q 3072 2584 2669 2484 
Q 3125 2378 3379 2068 
Q 3634 1759 3634 1313 
Q 3634 634 3220 271 
Q 2806 -91 2034 -91 
Q 1263 -91 848 271 
Q 434 634 434 1313 
Q 434 1759 690 2068 
Q 947 2378 1403 2484 
z
M 1172 3481 
Q 1172 3119 1398 2916 
Q 1625 2713 2034 2713 
Q 2441 2713 2670 2916 
Q 2900 3119 2900 3481 
Q 2900 3844 2670 4047 
Q 2441 4250 2034 4250 
Q 1625 4250 1398 4047 
Q 1172 3844 1172 3481 
z
" transform="scale(0.015625)"/>
       </defs>
       <use xlink:href="#DejaVuSans-30"/>
       <use xlink:href="#DejaVuSans-2e" x="63.623047"/>
       <use xlink:href="#DejaVuSans-38" x="95.410156"/>
      </g>
     </g>
    </g>
    <g id="ytick_6">
     <g id="line2d_14">
      <g>
       <use xlink:href="#md204f8c3ab" x="54" y="33.873079" style="stroke: #000000; stroke-width: 0.8"/>
      </g>
     </g>
     <g id="text_15">
      <!-- 1.0 -->
      <g transform="translate(31.096875 37.672298) scale(0.1 -0.1)">
       <use xlink:href="#DejaVuSans-31"/>
       <use xlink:href="#DejaVuSans-2e" x="63.623047"/>
       <use xlink:href="#DejaVuSans-30" x="95.410156"/>
      </g>
     </g>
    </g>
    <g id="text_16">
     <!-- Weights -->
     <g transform="translate(25.017187 129.103437) rotate(-90) scale(0.1 -0.1)">
      <defs>
       <path id="DejaVuSans-57" d="M 213 4666 
L 850 4666 
L 1831 722 
L 2809 4666 
L 3519 4666 
L 4500 722 
L 5478 4666 
L 6119 4666 
L 4947 0 
L 4153 0 
L 3169 4050 
L 2175 0 
L 1381 0 
L 213 4666 
z
" transform="scale(0.015625)"/>
       <path id="DejaVuSans-67" d="M 2906 1791 
Q 2906 2416 2648 2759 
Q 2391 3103 1925 3103 
Q 1463 3103 1205 2759 
Q 947 2416 947 1791 
Q 947 1169 1205 825 
Q 1463 481 1925 481 
Q 2391 481 2648 825 
Q 2906 1169 2906 1791 
z
M 3481 434 
Q 3481 -459 3084 -895 
Q 2688 -1331 1869 -1331 
Q 1566 -1331 1297 -1286 
Q 1028 -1241 775 -1147 
L 775 -588 
Q 1028 -725 1275 -790 
Q 1522 -856 1778 -856 
Q 2344 -856 2625 -561 
Q 2906 -266 2906 331 
L 2906 616 
Q 2728 306 2450 153 
Q 2172 0 1784 0 
Q 1141 0 747 490 
Q 353 981 353 1791 
Q 353 2603 747 3093 
Q 1141 3584 1784 3584 
Q 2172 3584 2450 3431 
Q 2728 3278 2906 2969 
L 2906 3500 
L 3481 3500 
L 3481 434 
z
" transform="scale(0.015625)"/>
       <path id="DejaVuSans-68" d="M 3513 2113 
L 3513 0 
L 2938 0 
L 2938 2094 
Q 2938 2591 2744 2837 
Q 2550 3084 2163 3084 
Q 1697 3084 1428 2787 
Q 1159 2491 1159 1978 
L 1159 0 
L 581 0 
L 581 4863 
L 1159 4863 
L 1159 2956 
Q 1366 3272 1645 3428 
Q 1925 3584 2291 3584 
Q 2894 3584 3203 3211 
Q 3513 2838 3513 2113 
z
" transform="scale(0.015625)"/>
       <path id="DejaVuSans-74" d="M 1172 4494 
L 1172 3500 
L 2356 3500 
L 2356 3053 
L 1172 3053 
L 1172 1153 
Q 1172 725 1289 603 
Q 1406 481 1766 481 
L 2356 481 
L 2356 0 
L 1766 0 
Q 1100 0 847 248 
Q 594 497 594 1153 
L 594 3053 
L 172 3053 
L 172 3500 
L 594 3500 
L 594 4494 
L 1172 4494 
z
" transform="scale(0.015625)"/>
       <path id="DejaVuSans-73" d="M 2834 3397 
L 2834 2853 
Q 2591 2978 2328 3040 
Q 2066 3103 1784 3103 
Q 1356 3103 1142 2972 
Q 928 2841 928 2578 
Q 928 2378 1081 2264 
Q 1234 2150 1697 2047 
L 1894 2003 
Q 2506 1872 2764 1633 
Q 3022 1394 3022 966 
Q 3022 478 2636 193 
Q 2250 -91 1575 -91 
Q 1294 -91 989 -36 
Q 684 19 347 128 
L 347 722 
Q 666 556 975 473 
Q 1284 391 1588 391 
Q 1994 391 2212 530 
Q 2431 669 2431 922 
Q 2431 1156 2273 1281 
Q 2116 1406 1581 1522 
L 1381 1569 
Q 847 1681 609 1914 
Q 372 2147 372 2553 
Q 372 3047 722 3315 
Q 1072 3584 1716 3584 
Q 2034 3584 2315 3537 
Q 2597 3491 2834 3397 
z
" transform="scale(0.015625)"/>
      </defs>
      <use xlink:href="#DejaVuSans-57"/>
      <use xlink:href="#DejaVuSans-65" x="93.001953"/>
      <use xlink:href="#DejaVuSans-69" x="154.525391"/>
      <use xlink:href="#DejaVuSans-67" x="182.308594"/>
      <use xlink:href="#DejaVuSans-68" x="245.785156"/>
      <use xlink:href="#DejaVuSans-74" x="309.164062"/>
      <use xlink:href="#DejaVuSans-73" x="348.373047"/>
     </g>
    </g>
   </g>
   <g id="line2d_15">
    <path d="M 69.218182 192.24 
L 85.237321 192.239995 
L 101.256459 192.239996 
L 117.275598 192.24 
L 133.294737 192.239999 
L 149.313876 192.239965 
L 165.333014 191.849646 
L 181.352153 192.239998 
L 197.371292 192.239813 
L 213.390431 192.195723 
L 229.409569 192.222431 
L 245.428708 192.239999 
L 261.447847 192.239991 
L 277.466986 192.23991 
L 293.486124 192.239996 
L 309.505263 192.239935 
L 325.524402 189.031025 
L 341.543541 186.931702 
L 357.562679 192.239983 
L 373.581818 192.239999 
" clip-path="url(#pca2b95b379)" style="fill: none; stroke: #1f77b4; stroke-width: 1.5; stroke-linecap: square"/>
   </g>
   <g id="line2d_16">
    <path d="M 69.218182 190.88839 
L 85.237321 189.208555 
L 101.256459 187.78117 
L 117.275598 182.643774 
L 133.294737 192.239998 
L 149.313876 192.239963 
L 165.333014 191.849646 
L 181.352153 192.239996 
L 197.371292 192.239803 
L 213.390431 192.195716 
L 229.409569 192.22243 
L 245.428708 192.23922 
L 261.447847 192.23999 
L 277.466986 192.239894 
L 293.486124 192.239993 
L 309.505263 192.239931 
L 325.524402 189.030973 
L 341.543541 186.931702 
L 357.562679 192.239982 
L 373.581818 192.239998 
" clip-path="url(#pca2b95b379)" style="fill: none; stroke: #ff7f0e; stroke-width: 1.5; stroke-linecap: square"/>
   </g>
   <g id="line2d_17">
    <path d="M 69.218182 183.706437 
L 85.237321 183.364489 
L 101.256459 181.869184 
L 117.275598 168.822589 
L 133.294737 192.239993 
L 149.313876 192.239958 
L 165.333014 191.849646 
L 181.352153 192.239994 
L 197.371292 192.23978 
L 213.390431 192.195699 
L 229.409569 192.222427 
L 245.428708 192.235456 
L 261.447847 192.239791 
L 277.466986 187.422013 
L 293.486124 183.812079 
L 309.505263 181.488815 
L 325.524402 152.432709 
L 341.543541 161.763152 
L 357.562679 181.438509 
L 373.581818 187.557124 
" clip-path="url(#pca2b95b379)" style="fill: none; stroke: #2ca02c; stroke-width: 1.5; stroke-linecap: square"/>
   </g>
   <g id="line2d_18">
    <path d="M 69.218182 171.342344 
L 85.237321 165.738571 
L 101.256459 174.980964 
L 117.275598 152.150154 
L 133.294737 147.60038 
L 149.313876 161.111227 
L 165.333014 160.282168 
L 181.352153 159.099965 
L 197.371292 155.499809 
L 213.390431 149.627586 
L 229.409569 170.563253 
L 245.428708 165.511742 
L 261.447847 162.666342 
L 277.466986 164.766561 
L 293.486124 165.232905 
L 309.505263 162.287985 
L 325.524402 152.432654 
L 341.543541 153.704702 
L 357.562679 166.045124 
L 373.581818 173.974415 
" clip-path="url(#pca2b95b379)" style="fill: none; stroke: #d62728; stroke-width: 1.5; stroke-linecap: square"/>
   </g>
   <g id="line2d_19">
    <path d="M 69.218182 171.342344 
L 85.237321 165.738522 
L 101.256459 153.85079 
L 117.275598 132.244548 
L 133.294737 136.753434 
L 149.313876 152.82842 
L 165.333014 146.415114 
L 181.352153 146.295674 
L 197.371292 147.019867 
L 213.390431 139.562425 
L 229.409569 161.16377 
L 245.428708 147.786297 
L 261.447847 144.418602 
L 277.466986 151.15484 
L 293.486124 150.76768 
L 309.505263 153.629593 
L 325.524402 152.432557 
L 341.543541 153.704702 
L 357.562679 163.23917 
L 373.581818 173.973357 
" clip-path="url(#pca2b95b379)" style="fill: none; stroke: #9467bd; stroke-width: 1.5; stroke-linecap: square"/>
   </g>
   <g id="line2d_20">
    <path d="M 69.218182 154.856888 
L 85.237321 152.778811 
L 101.256459 106.982604 
L 117.275598 113.717713 
L 133.294737 129.975461 
L 149.313876 152.731888 
L 165.333014 140.66018 
L 181.352153 134.690775 
L 197.371292 143.316529 
L 213.390431 135.162574 
L 229.409569 160.826585 
L 245.428708 147.78552 
L 261.447847 134.730729 
L 277.466986 143.251723 
L 293.486124 142.779015 
L 309.505263 140.131756 
L 325.524402 133.907249 
L 341.543541 137.814148 
L 357.562679 131.21628 
L 373.581818 147.357449 
" clip-path="url(#pca2b95b379)" style="fill: none; stroke: #8c564b; stroke-width: 1.5; stroke-linecap: square"/>
   </g>
   <g id="line2d_21">
    <path d="M 69.218182 154.856888 
L 85.237321 152.778674 
L 101.256459 106.982351 
L 117.275598 93.320605 
L 133.294737 106.899046 
L 149.313876 126.658856 
L 165.333014 107.292736 
L 181.352153 108.627921 
L 197.371292 117.821372 
L 213.390431 125.38764 
L 229.409569 160.826577 
L 245.428708 132.327979 
L 261.447847 120.304885 
L 277.466986 127.645636 
L 293.486124 127.003034 
L 309.505263 122.583158 
L 325.524402 123.514332 
L 341.543541 137.814148 
L 357.562679 123.090988 
L 373.581818 135.355698 
" clip-path="url(#pca2b95b379)" style="fill: none; stroke: #e377c2; stroke-width: 1.5; stroke-linecap: square"/>
   </g>
   <g id="line2d_22">
    <path d="M 69.218182 148.859151 
L 85.237321 152.018439 
L 101.256459 106.982346 
L 117.275598 93.320605 
L 133.294737 106.899046 
L 149.313876 126.658855 
L 165.333014 107.292736 
L 181.352153 108.62792 
L 197.371292 117.821368 
L 213.390431 125.387637 
L 229.409569 160.826577 
L 245.428708 132.327979 
L 261.447847 120.30488 
L 277.466986 127.64562 
L 293.486124 127.00303 
L 309.505263 122.583156 
L 325.524402 122.82171 
L 341.543541 136.132932 
L 357.562679 123.090979 
L 373.581818 135.355698 
" clip-path="url(#pca2b95b379)" style="fill: none; stroke: #7f7f7f; stroke-width: 1.5; stroke-linecap: square"/>
   </g>
   <g id="line2d_23">
    <path d="M 69.218182 134.418797 
L 85.237321 134.003718 
L 101.256459 106.981438 
L 117.275598 93.320605 
L 133.294737 103.810287 
L 149.313876 126.658807 
L 165.333014 107.291824 
L 181.352153 108.627919 
L 197.371292 117.821346 
L 213.390431 125.387604 
L 229.409569 160.826576 
L 245.428708 132.327975 
L 261.447847 120.304853 
L 277.466986 125.701113 
L 293.486124 118.973332 
L 309.505263 97.248035 
L 325.524402 77.245457 
L 341.543541 94.723438 
L 357.562679 92.214501 
L 373.581818 125.966288 
" clip-path="url(#pca2b95b379)" style="fill: none; stroke: #bcbd22; stroke-width: 1.5; stroke-linecap: square"/>
   </g>
   <g id="line2d_24">
    <path d="M 69.218182 124.233211 
L 85.237321 127.073879 
L 101.256459 106.979041 
L 117.275598 93.320605 
L 133.294737 103.810284 
L 149.313876 126.628025 
L 165.333014 107.290708 
L 181.352153 108.627917 
L 197.371292 117.821317 
L 213.390431 125.387576 
L 229.409569 160.826575 
L 245.428708 132.327975 
L 261.447847 120.304851 
L 277.466986 125.701081 
L 293.486124 118.973319 
L 309.505263 97.248025 
L 325.524402 76.477742 
L 341.543541 87.736317 
L 357.562679 87.970435 
L 373.581818 123.762551 
" clip-path="url(#pca2b95b379)" style="fill: none; stroke: #17becf; stroke-width: 1.5; stroke-linecap: square"/>
   </g>
   <g id="line2d_25">
    <path d="M 69.218182 112.742738 
L 85.237321 116.174309 
L 101.256459 92.217274 
L 117.275598 89.048088 
L 133.294737 103.810259 
L 149.313876 125.32057 
L 165.333014 106.258863 
L 181.352153 108.62773 
L 197.371292 117.82127 
L 213.390431 121.419641 
L 229.409569 134.597613 
L 245.428708 115.00852 
L 261.447847 107.430016 
L 277.466986 123.448636 
L 293.486124 111.660727 
L 309.505263 89.039587 
L 325.524402 72.712499 
L 341.543541 84.557205 
L 357.562679 86.867206 
L 373.581818 121.08603 
" clip-path="url(#pca2b95b379)" style="fill: none; stroke: #1f77b4; stroke-width: 1.5; stroke-linecap: square"/>
   </g>
   <g id="line2d_26">
    <path d="M 69.218182 112.742738 
L 85.237321 116.174289 
L 101.256459 92.217229 
L 117.275598 76.311852 
L 133.294737 103.810254 
L 149.313876 116.601941 
L 165.333014 96.966114 
L 181.352153 100.068566 
L 197.371292 106.42585 
L 213.390431 112.119014 
L 229.409569 97.441938 
L 245.428708 99.344537 
L 261.447847 97.636705 
L 277.466986 120.412166 
L 293.486124 109.205811 
L 309.505263 89.03955 
L 325.524402 72.712464 
L 341.543541 84.557205 
L 357.562679 86.867204 
L 373.581818 121.086029 
" clip-path="url(#pca2b95b379)" style="fill: none; stroke: #ff7f0e; stroke-width: 1.5; stroke-linecap: square"/>
   </g>
   <g id="line2d_27">
    <path d="M 69.218182 112.742738 
L 85.237321 116.174271 
L 101.256459 92.21718 
L 117.275598 76.311852 
L 133.294737 103.809402 
L 149.313876 114.25428 
L 165.333014 96.966114 
L 181.352153 99.914731 
L 197.371292 106.425789 
L 213.390431 109.582186 
L 229.409569 97.441935 
L 245.428708 94.766058 
L 261.447847 84.671874 
L 277.466986 100.871648 
L 293.486124 91.269426 
L 309.505263 84.238109 
L 325.524402 64.93833 
L 341.543541 68.542119 
L 357.562679 86.43866 
L 373.581818 110.188544 
" clip-path="url(#pca2b95b379)" style="fill: none; stroke: #2ca02c; stroke-width: 1.5; stroke-linecap: square"/>
   </g>
   <g id="line2d_28">
    <path d="M 69.218182 87.413265 
L 85.237321 109.945857 
L 101.256459 86.064486 
L 117.275598 63.352465 
L 133.294737 98.942341 
L 149.313876 102.898579 
L 165.333014 89.459637 
L 181.352153 86.790635 
L 197.371292 97.364929 
L 213.390431 105.030665 
L 229.409569 97.441926 
L 245.428708 94.766051 
L 261.447847 79.905216 
L 277.466986 87.648197 
L 293.486124 75.42774 
L 309.505263 64.398328 
L 325.524402 56.567263 
L 341.543541 58.119613 
L 357.562679 78.031315 
L 373.581818 92.935461 
" clip-path="url(#pca2b95b379)" style="fill: none; stroke: #d62728; stroke-width: 1.5; stroke-linecap: square"/>
   </g>
   <g id="line2d_29">
    <path d="M 69.218182 77.769059 
L 85.237321 100.556144 
L 101.256459 81.04824 
L 117.275598 48.748344 
L 133.294737 73.652091 
L 149.313876 85.96812 
L 165.333014 74.457844 
L 181.352153 81.952787 
L 197.371292 96.466846 
L 213.390431 104.043792 
L 229.409569 97.441923 
L 245.428708 94.766049 
L 261.447847 79.90515 
L 277.466986 79.724296 
L 293.486124 75.426396 
L 309.505263 64.398302 
L 325.524402 56.567208 
L 341.543541 58.119613 
L 357.562679 78.031312 
L 373.581818 92.935459 
" clip-path="url(#pca2b95b379)" style="fill: none; stroke: #9467bd; stroke-width: 1.5; stroke-linecap: square"/>
   </g>
   <g id="line2d_30">
    <path d="M 69.218182 68.264836 
L 85.237321 87.693832 
L 101.256459 69.068367 
L 117.275598 44.117093 
L 133.294737 73.652085 
L 149.313876 85.968117 
L 165.333014 74.457844 
L 181.352153 81.952785 
L 197.371292 96.466831 
L 213.390431 104.04378 
L 229.409569 97.441918 
L 245.428708 94.766047 
L 261.447847 79.905062 
L 277.466986 79.72201 
L 293.486124 75.424083 
L 309.505263 64.398299 
L 325.524402 56.567173 
L 341.543541 58.119613 
L 357.562679 78.031312 
L 373.581818 92.935459 
" clip-path="url(#pca2b95b379)" style="fill: none; stroke: #8c564b; stroke-width: 1.5; stroke-linecap: square"/>
   </g>
   <g id="line2d_31">
    <path d="M 69.218182 56.752214 
L 85.237321 72.35848 
L 101.256459 54.042081 
L 117.275598 44.117093 
L 133.294737 55.341103 
L 149.313876 55.716289 
L 165.333014 44.302169 
L 181.352153 43.458177 
L 197.371292 54.070639 
L 213.390431 51.41038 
L 229.409569 46.392232 
L 245.428708 51.946068 
L 261.447847 49.533403 
L 277.466986 62.185841 
L 293.486124 63.24428 
L 309.505263 53.784043 
L 325.524402 48.524597 
L 341.543541 51.943115 
L 357.562679 59.283218 
L 373.581818 69.307765 
" clip-path="url(#pca2b95b379)" style="fill: none; stroke: #e377c2; stroke-width: 1.5; stroke-linecap: square"/>
   </g>
   <g id="line2d_32">
    <path d="M 69.218182 38.245174 
L 85.237321 37.680398 
L 101.256459 34.559288 
L 117.275598 40.858372 
L 133.294737 47.867305 
L 149.313876 49.415103 
L 165.333014 44.155179 
L 181.352153 41.833187 
L 197.371292 50.736284 
L 213.390431 47.808977 
L 229.409569 46.392224 
L 245.428708 42.71785 
L 261.447847 46.467304 
L 277.466986 49.48387 
L 293.486124 52.149148 
L 309.505263 52.700723 
L 325.524402 43.540066 
L 341.543541 43.851439 
L 357.562679 40.738391 
L 373.581818 44.094123 
" clip-path="url(#pca2b95b379)" style="fill: none; stroke: #7f7f7f; stroke-width: 1.5; stroke-linecap: square"/>
   </g>
   <g id="line2d_33">
    <path d="M 69.218182 33.872276 
L 85.237321 33.873114 
L 101.256459 33.873122 
L 117.275598 40.858372 
L 133.294737 35.296748 
L 149.313876 38.460014 
L 165.333014 39.921459 
L 181.352153 41.301452 
L 197.371292 42.437113 
L 213.390431 38.397394 
L 229.409569 40.777535 
L 245.428708 36.750824 
L 261.447847 37.491287 
L 277.466986 33.873086 
L 293.486124 33.873081 
L 309.505263 33.873083 
L 325.524402 33.873097 
L 341.543541 33.84 
L 357.562679 33.873081 
L 373.581818 36.851796 
" clip-path="url(#pca2b95b379)" style="fill: none; stroke: #bcbd22; stroke-width: 1.5; stroke-linecap: square"/>
   </g>
   <g id="line2d_34">
    <path d="M 69.218182 33.872276 
L 85.237321 33.873079 
L 101.256459 33.873079 
L 117.275598 33.872673 
L 133.294737 33.873079 
L 149.313876 33.873079 
L 165.333014 33.873017 
L 181.352153 33.873079 
L 197.371292 33.873079 
L 213.390431 33.873079 
L 229.409569 33.873079 
L 245.428708 33.873079 
L 261.447847 33.873079 
L 277.466986 33.873079 
L 293.486124 33.873079 
L 309.505263 33.873079 
L 325.524402 33.873079 
L 341.543541 33.84 
L 357.562679 33.873079 
L 373.581818 33.873079 
" clip-path="url(#pca2b95b379)" style="fill: none; stroke: #17becf; stroke-width: 1.5; stroke-linecap: square"/>
   </g>
   <g id="patch_3">
    <path d="M 54 192.24 
L 54 25.92 
" style="fill: none; stroke: #000000; stroke-width: 0.8; stroke-linejoin: miter; stroke-linecap: square"/>
   </g>
   <g id="patch_4">
    <path d="M 388.8 192.24 
L 388.8 25.92 
" style="fill: none; stroke: #000000; stroke-width: 0.8; stroke-linejoin: miter; stroke-linecap: square"/>
   </g>
   <g id="patch_5">
    <path d="M 54 192.24 
L 388.8 192.24 
" style="fill: none; stroke: #000000; stroke-width: 0.8; stroke-linejoin: miter; stroke-linecap: square"/>
   </g>
   <g id="patch_6">
    <path d="M 54 25.92 
L 388.8 25.92 
" style="fill: none; stroke: #000000; stroke-width: 0.8; stroke-linejoin: miter; stroke-linecap: square"/>
   </g>
   <g id="text_17">
    <!-- Portfolio weights -->
    <g transform="translate(171.459375 19.92) scale(0.12 -0.12)">
     <defs>
      <path id="DejaVuSans-66" d="M 2375 4863 
L 2375 4384 
L 1825 4384 
Q 1516 4384 1395 4259 
Q 1275 4134 1275 3809 
L 1275 3500 
L 2222 3500 
L 2222 3053 
L 1275 3053 
L 1275 0 
L 697 0 
L 697 3053 
L 147 3053 
L 147 3500 
L 697 3500 
L 697 3744 
Q 697 4328 969 4595 
Q 1241 4863 1831 4863 
L 2375 4863 
z
" transform="scale(0.015625)"/>
      <path id="DejaVuSans-77" d="M 269 3500 
L 844 3500 
L 1563 769 
L 2278 3500 
L 2956 3500 
L 3675 769 
L 4391 3500 
L 4966 3500 
L 4050 0 
L 3372 0 
L 2619 2869 
L 1863 0 
L 1184 0 
L 269 3500 
z
" transform="scale(0.015625)"/>
     </defs>
     <use xlink:href="#DejaVuSans-50"/>
     <use xlink:href="#DejaVuSans-6f" x="56.677734"/>
     <use xlink:href="#DejaVuSans-72" x="117.859375"/>
     <use xlink:href="#DejaVuSans-74" x="158.972656"/>
     <use xlink:href="#DejaVuSans-66" x="198.181641"/>
     <use xlink:href="#DejaVuSans-6f" x="233.386719"/>
     <use xlink:href="#DejaVuSans-6c" x="294.568359"/>
     <use xlink:href="#DejaVuSans-69" x="322.351562"/>
     <use xlink:href="#DejaVuSans-6f" x="350.134766"/>
     <use xlink:href="#DejaVuSans-20" x="411.316406"/>
     <use xlink:href="#DejaVuSans-77" x="443.103516"/>
     <use xlink:href="#DejaVuSans-65" x="524.890625"/>
     <use xlink:href="#DejaVuSans-69" x="586.414062"/>
     <use xlink:href="#DejaVuSans-67" x="614.197266"/>
     <use xlink:href="#DejaVuSans-68" x="677.673828"/>
     <use xlink:href="#DejaVuSans-74" x="741.052734"/>
     <use xlink:href="#DejaVuSans-73" x="780.261719"/>
    </g>
   </g>
   <g id="legend_1">
    <g id="patch_7">
     <path d="M 395.8 257.36125 
L 453.357813 257.36125 
Q 455.357813 257.36125 455.357813 255.36125 
L 455.357813 -37.20125 
Q 455.357813 -39.20125 453.357813 -39.20125 
L 395.8 -39.20125 
Q 393.8 -39.20125 393.8 -37.20125 
L 393.8 255.36125 
Q 393.8 257.36125 395.8 257.36125 
z
" style="fill: #ffffff; opacity: 0.8; stroke: #cccccc; stroke-linejoin: miter"/>
    </g>
    <g id="patch_8">
     <path d="M 397.8 -27.602813 
L 417.8 -27.602813 
L 417.8 -34.602813 
L 397.8 -34.602813 
z
" style="fill: #1f77b4; stroke: #1f77b4; stroke-linejoin: miter"/>
    </g>
    <g id="text_18">
     <!-- F -->
     <g transform="translate(425.8 -27.602813) scale(0.1 -0.1)">
      <defs>
       <path id="DejaVuSans-46" d="M 628 4666 
L 3309 4666 
L 3309 4134 
L 1259 4134 
L 1259 2759 
L 3109 2759 
L 3109 2228 
L 1259 2228 
L 1259 0 
L 628 0 
L 628 4666 
z
" transform="scale(0.015625)"/>
      </defs>
      <use xlink:href="#DejaVuSans-46"/>
     </g>
    </g>
    <g id="patch_9">
     <path d="M 397.8 -12.924688 
L 417.8 -12.924688 
L 417.8 -19.924688 
L 397.8 -19.924688 
z
" style="fill: #ff7f0e; stroke: #ff7f0e; stroke-linejoin: miter"/>
    </g>
    <g id="text_19">
     <!-- CAT -->
     <g transform="translate(425.8 -12.924688) scale(0.1 -0.1)">
      <defs>
       <path id="DejaVuSans-43" d="M 4122 4306 
L 4122 3641 
Q 3803 3938 3442 4084 
Q 3081 4231 2675 4231 
Q 1875 4231 1450 3742 
Q 1025 3253 1025 2328 
Q 1025 1406 1450 917 
Q 1875 428 2675 428 
Q 3081 428 3442 575 
Q 3803 722 4122 1019 
L 4122 359 
Q 3791 134 3420 21 
Q 3050 -91 2638 -91 
Q 1578 -91 968 557 
Q 359 1206 359 2328 
Q 359 3453 968 4101 
Q 1578 4750 2638 4750 
Q 3056 4750 3426 4639 
Q 3797 4528 4122 4306 
z
" transform="scale(0.015625)"/>
       <path id="DejaVuSans-41" d="M 2188 4044 
L 1331 1722 
L 3047 1722 
L 2188 4044 
z
M 1831 4666 
L 2547 4666 
L 4325 0 
L 3669 0 
L 3244 1197 
L 1141 1197 
L 716 0 
L 50 0 
L 1831 4666 
z
" transform="scale(0.015625)"/>
       <path id="DejaVuSans-54" d="M -19 4666 
L 3928 4666 
L 3928 4134 
L 2272 4134 
L 2272 0 
L 1638 0 
L 1638 4134 
L -19 4134 
L -19 4666 
z
" transform="scale(0.015625)"/>
      </defs>
      <use xlink:href="#DejaVuSans-43"/>
      <use xlink:href="#DejaVuSans-41" x="69.824219"/>
      <use xlink:href="#DejaVuSans-54" x="130.482422"/>
     </g>
    </g>
    <g id="patch_10">
     <path d="M 397.8 1.753437 
L 417.8 1.753437 
L 417.8 -5.246563 
L 397.8 -5.246563 
z
" style="fill: #2ca02c; stroke: #2ca02c; stroke-linejoin: miter"/>
    </g>
    <g id="text_20">
     <!-- DIS -->
     <g transform="translate(425.8 1.753437) scale(0.1 -0.1)">
      <defs>
       <path id="DejaVuSans-44" d="M 1259 4147 
L 1259 519 
L 2022 519 
Q 2988 519 3436 956 
Q 3884 1394 3884 2338 
Q 3884 3275 3436 3711 
Q 2988 4147 2022 4147 
L 1259 4147 
z
M 628 4666 
L 1925 4666 
Q 3281 4666 3915 4102 
Q 4550 3538 4550 2338 
Q 4550 1131 3912 565 
Q 3275 0 1925 0 
L 628 0 
L 628 4666 
z
" transform="scale(0.015625)"/>
       <path id="DejaVuSans-49" d="M 628 4666 
L 1259 4666 
L 1259 0 
L 628 0 
L 628 4666 
z
" transform="scale(0.015625)"/>
       <path id="DejaVuSans-53" d="M 3425 4513 
L 3425 3897 
Q 3066 4069 2747 4153 
Q 2428 4238 2131 4238 
Q 1616 4238 1336 4038 
Q 1056 3838 1056 3469 
Q 1056 3159 1242 3001 
Q 1428 2844 1947 2747 
L 2328 2669 
Q 3034 2534 3370 2195 
Q 3706 1856 3706 1288 
Q 3706 609 3251 259 
Q 2797 -91 1919 -91 
Q 1588 -91 1214 -16 
Q 841 59 441 206 
L 441 856 
Q 825 641 1194 531 
Q 1563 422 1919 422 
Q 2459 422 2753 634 
Q 3047 847 3047 1241 
Q 3047 1584 2836 1778 
Q 2625 1972 2144 2069 
L 1759 2144 
Q 1053 2284 737 2584 
Q 422 2884 422 3419 
Q 422 4038 858 4394 
Q 1294 4750 2059 4750 
Q 2388 4750 2728 4690 
Q 3069 4631 3425 4513 
z
" transform="scale(0.015625)"/>
      </defs>
      <use xlink:href="#DejaVuSans-44"/>
      <use xlink:href="#DejaVuSans-49" x="77.001953"/>
      <use xlink:href="#DejaVuSans-53" x="106.494141"/>
     </g>
    </g>
    <g id="patch_11">
     <path d="M 397.8 16.431562 
L 417.8 16.431562 
L 417.8 9.431562 
L 397.8 9.431562 
z
" style="fill: #d62728; stroke: #d62728; stroke-linejoin: miter"/>
    </g>
    <g id="text_21">
     <!-- MCD -->
     <g transform="translate(425.8 16.431562) scale(0.1 -0.1)">
      <defs>
       <path id="DejaVuSans-4d" d="M 628 4666 
L 1569 4666 
L 2759 1491 
L 3956 4666 
L 4897 4666 
L 4897 0 
L 4281 0 
L 4281 4097 
L 3078 897 
L 2444 897 
L 1241 4097 
L 1241 0 
L 628 0 
L 628 4666 
z
" transform="scale(0.015625)"/>
      </defs>
      <use xlink:href="#DejaVuSans-4d"/>
      <use xlink:href="#DejaVuSans-43" x="86.279297"/>
      <use xlink:href="#DejaVuSans-44" x="156.103516"/>
     </g>
    </g>
    <g id="patch_12">
     <path d="M 397.8 31.109688 
L 417.8 31.109688 
L 417.8 24.109688 
L 397.8 24.109688 
z
" style="fill: #9467bd; stroke: #9467bd; stroke-linejoin: miter"/>
    </g>
    <g id="text_22">
     <!-- KO -->
     <g transform="translate(425.8 31.109688) scale(0.1 -0.1)">
      <defs>
       <path id="DejaVuSans-4b" d="M 628 4666 
L 1259 4666 
L 1259 2694 
L 3353 4666 
L 4166 4666 
L 1850 2491 
L 4331 0 
L 3500 0 
L 1259 2247 
L 1259 0 
L 628 0 
L 628 4666 
z
" transform="scale(0.015625)"/>
       <path id="DejaVuSans-4f" d="M 2522 4238 
Q 1834 4238 1429 3725 
Q 1025 3213 1025 2328 
Q 1025 1447 1429 934 
Q 1834 422 2522 422 
Q 3209 422 3611 934 
Q 4013 1447 4013 2328 
Q 4013 3213 3611 3725 
Q 3209 4238 2522 4238 
z
M 2522 4750 
Q 3503 4750 4090 4092 
Q 4678 3434 4678 2328 
Q 4678 1225 4090 567 
Q 3503 -91 2522 -91 
Q 1538 -91 948 565 
Q 359 1222 359 2328 
Q 359 3434 948 4092 
Q 1538 4750 2522 4750 
z
" transform="scale(0.015625)"/>
      </defs>
      <use xlink:href="#DejaVuSans-4b"/>
      <use xlink:href="#DejaVuSans-4f" x="60.076172"/>
     </g>
    </g>
    <g id="patch_13">
     <path d="M 397.8 45.787812 
L 417.8 45.787812 
L 417.8 38.787812 
L 397.8 38.787812 
z
" style="fill: #8c564b; stroke: #8c564b; stroke-linejoin: miter"/>
    </g>
    <g id="text_23">
     <!-- PEP -->
     <g transform="translate(425.8 45.787812) scale(0.1 -0.1)">
      <defs>
       <path id="DejaVuSans-45" d="M 628 4666 
L 3578 4666 
L 3578 4134 
L 1259 4134 
L 1259 2753 
L 3481 2753 
L 3481 2222 
L 1259 2222 
L 1259 531 
L 3634 531 
L 3634 0 
L 628 0 
L 628 4666 
z
" transform="scale(0.015625)"/>
      </defs>
      <use xlink:href="#DejaVuSans-50"/>
      <use xlink:href="#DejaVuSans-45" x="60.302734"/>
      <use xlink:href="#DejaVuSans-50" x="123.486328"/>
     </g>
    </g>
    <g id="patch_14">
     <path d="M 397.8 60.465937 
L 417.8 60.465937 
L 417.8 53.465937 
L 397.8 53.465937 
z
" style="fill: #e377c2; stroke: #e377c2; stroke-linejoin: miter"/>
    </g>
    <g id="text_24">
     <!-- WMT -->
     <g transform="translate(425.8 60.465937) scale(0.1 -0.1)">
      <use xlink:href="#DejaVuSans-57"/>
      <use xlink:href="#DejaVuSans-4d" x="98.876953"/>
      <use xlink:href="#DejaVuSans-54" x="185.15625"/>
     </g>
    </g>
    <g id="patch_15">
     <path d="M 397.8 75.144062 
L 417.8 75.144062 
L 417.8 68.144062 
L 397.8 68.144062 
z
" style="fill: #7f7f7f; stroke: #7f7f7f; stroke-linejoin: miter"/>
    </g>
    <g id="text_25">
     <!-- C -->
     <g transform="translate(425.8 75.144062) scale(0.1 -0.1)">
      <use xlink:href="#DejaVuSans-43"/>
     </g>
    </g>
    <g id="patch_16">
     <path d="M 397.8 89.822187 
L 417.8 89.822187 
L 417.8 82.822187 
L 397.8 82.822187 
z
" style="fill: #bcbd22; stroke: #bcbd22; stroke-linejoin: miter"/>
    </g>
    <g id="text_26">
     <!-- WFC -->
     <g transform="translate(425.8 89.822187) scale(0.1 -0.1)">
      <use xlink:href="#DejaVuSans-57"/>
      <use xlink:href="#DejaVuSans-46" x="98.876953"/>
      <use xlink:href="#DejaVuSans-43" x="156.396484"/>
     </g>
    </g>
    <g id="patch_17">
     <path d="M 397.8 104.500312 
L 417.8 104.500312 
L 417.8 97.500312 
L 397.8 97.500312 
z
" style="fill: #17becf; stroke: #17becf; stroke-linejoin: miter"/>
    </g>
    <g id="text_27">
     <!-- JPM -->
     <g transform="translate(425.8 104.500312) scale(0.1 -0.1)">
      <defs>
       <path id="DejaVuSans-4a" d="M 628 4666 
L 1259 4666 
L 1259 325 
Q 1259 -519 939 -900 
Q 619 -1281 -91 -1281 
L -331 -1281 
L -331 -750 
L -134 -750 
Q 284 -750 456 -515 
Q 628 -281 628 325 
L 628 4666 
z
" transform="scale(0.015625)"/>
      </defs>
      <use xlink:href="#DejaVuSans-4a"/>
      <use xlink:href="#DejaVuSans-50" x="29.492188"/>
      <use xlink:href="#DejaVuSans-4d" x="89.794922"/>
     </g>
    </g>
    <g id="patch_18">
     <path d="M 397.8 119.178437 
L 417.8 119.178437 
L 417.8 112.178437 
L 397.8 112.178437 
z
" style="fill: #1f77b4; stroke: #1f77b4; stroke-linejoin: miter"/>
    </g>
    <g id="text_28">
     <!-- AAPL -->
     <g transform="translate(425.8 119.178437) scale(0.1 -0.1)">
      <defs>
       <path id="DejaVuSans-4c" d="M 628 4666 
L 1259 4666 
L 1259 531 
L 3531 531 
L 3531 0 
L 628 0 
L 628 4666 
z
" transform="scale(0.015625)"/>
      </defs>
      <use xlink:href="#DejaVuSans-41"/>
      <use xlink:href="#DejaVuSans-41" x="71.158203"/>
      <use xlink:href="#DejaVuSans-50" x="139.566406"/>
      <use xlink:href="#DejaVuSans-4c" x="199.869141"/>
     </g>
    </g>
    <g id="patch_19">
     <path d="M 397.8 133.856562 
L 417.8 133.856562 
L 417.8 126.856562 
L 397.8 126.856562 
z
" style="fill: #ff7f0e; stroke: #ff7f0e; stroke-linejoin: miter"/>
    </g>
    <g id="text_29">
     <!-- IBM -->
     <g transform="translate(425.8 133.856562) scale(0.1 -0.1)">
      <defs>
       <path id="DejaVuSans-42" d="M 1259 2228 
L 1259 519 
L 2272 519 
Q 2781 519 3026 730 
Q 3272 941 3272 1375 
Q 3272 1813 3026 2020 
Q 2781 2228 2272 2228 
L 1259 2228 
z
M 1259 4147 
L 1259 2741 
L 2194 2741 
Q 2656 2741 2882 2914 
Q 3109 3088 3109 3444 
Q 3109 3797 2882 3972 
Q 2656 4147 2194 4147 
L 1259 4147 
z
M 628 4666 
L 2241 4666 
Q 2963 4666 3353 4366 
Q 3744 4066 3744 3513 
Q 3744 3084 3544 2831 
Q 3344 2578 2956 2516 
Q 3422 2416 3680 2098 
Q 3938 1781 3938 1306 
Q 3938 681 3513 340 
Q 3088 0 2303 0 
L 628 0 
L 628 4666 
z
" transform="scale(0.015625)"/>
      </defs>
      <use xlink:href="#DejaVuSans-49"/>
      <use xlink:href="#DejaVuSans-42" x="29.492188"/>
      <use xlink:href="#DejaVuSans-4d" x="98.095703"/>
     </g>
    </g>
    <g id="patch_20">
     <path d="M 397.8 148.534687 
L 417.8 148.534687 
L 417.8 141.534687 
L 397.8 141.534687 
z
" style="fill: #2ca02c; stroke: #2ca02c; stroke-linejoin: miter"/>
    </g>
    <g id="text_30">
     <!-- PFE -->
     <g transform="translate(425.8 148.534687) scale(0.1 -0.1)">
      <use xlink:href="#DejaVuSans-50"/>
      <use xlink:href="#DejaVuSans-46" x="60.302734"/>
      <use xlink:href="#DejaVuSans-45" x="117.822266"/>
     </g>
    </g>
    <g id="patch_21">
     <path d="M 397.8 163.212812 
L 417.8 163.212812 
L 417.8 156.212812 
L 397.8 156.212812 
z
" style="fill: #d62728; stroke: #d62728; stroke-linejoin: miter"/>
    </g>
    <g id="text_31">
     <!-- JNJ -->
     <g transform="translate(425.8 163.212812) scale(0.1 -0.1)">
      <defs>
       <path id="DejaVuSans-4e" d="M 628 4666 
L 1478 4666 
L 3547 763 
L 3547 4666 
L 4159 4666 
L 4159 0 
L 3309 0 
L 1241 3903 
L 1241 0 
L 628 0 
L 628 4666 
z
" transform="scale(0.015625)"/>
      </defs>
      <use xlink:href="#DejaVuSans-4a"/>
      <use xlink:href="#DejaVuSans-4e" x="29.492188"/>
      <use xlink:href="#DejaVuSans-4a" x="104.296875"/>
     </g>
    </g>
    <g id="patch_22">
     <path d="M 397.8 177.890937 
L 417.8 177.890937 
L 417.8 170.890937 
L 397.8 170.890937 
z
" style="fill: #9467bd; stroke: #9467bd; stroke-linejoin: miter"/>
    </g>
    <g id="text_32">
     <!-- XOM -->
     <g transform="translate(425.8 177.890937) scale(0.1 -0.1)">
      <defs>
       <path id="DejaVuSans-58" d="M 403 4666 
L 1081 4666 
L 2241 2931 
L 3406 4666 
L 4084 4666 
L 2584 2425 
L 4184 0 
L 3506 0 
L 2194 1984 
L 872 0 
L 191 0 
L 1856 2491 
L 403 4666 
z
" transform="scale(0.015625)"/>
      </defs>
      <use xlink:href="#DejaVuSans-58"/>
      <use xlink:href="#DejaVuSans-4f" x="62.130859"/>
      <use xlink:href="#DejaVuSans-4d" x="140.841797"/>
     </g>
    </g>
    <g id="patch_23">
     <path d="M 397.8 192.569062 
L 417.8 192.569062 
L 417.8 185.569062 
L 397.8 185.569062 
z
" style="fill: #8c564b; stroke: #8c564b; stroke-linejoin: miter"/>
    </g>
    <g id="text_33">
     <!-- MRO -->
     <g transform="translate(425.8 192.569062) scale(0.1 -0.1)">
      <use xlink:href="#DejaVuSans-4d"/>
      <use xlink:href="#DejaVuSans-52" x="86.279297"/>
      <use xlink:href="#DejaVuSans-4f" x="155.761719"/>
     </g>
    </g>
    <g id="patch_24">
     <path d="M 397.8 207.247187 
L 417.8 207.247187 
L 417.8 200.247187 
L 397.8 200.247187 
z
" style="fill: #e377c2; stroke: #e377c2; stroke-linejoin: miter"/>
    </g>
    <g id="text_34">
     <!-- ED -->
     <g transform="translate(425.8 207.247187) scale(0.1 -0.1)">
      <use xlink:href="#DejaVuSans-45"/>
      <use xlink:href="#DejaVuSans-44" x="63.183594"/>
     </g>
    </g>
    <g id="patch_25">
     <path d="M 397.8 221.925312 
L 417.8 221.925312 
L 417.8 214.925312 
L 397.8 214.925312 
z
" style="fill: #7f7f7f; stroke: #7f7f7f; stroke-linejoin: miter"/>
    </g>
    <g id="text_35">
     <!-- T -->
     <g transform="translate(425.8 221.925312) scale(0.1 -0.1)">
      <use xlink:href="#DejaVuSans-54"/>
     </g>
    </g>
    <g id="patch_26">
     <path d="M 397.8 236.603437 
L 417.8 236.603437 
L 417.8 229.603437 
L 397.8 229.603437 
z
" style="fill: #bcbd22; stroke: #bcbd22; stroke-linejoin: miter"/>
    </g>
    <g id="text_36">
     <!-- VZ -->
     <g transform="translate(425.8 236.603437) scale(0.1 -0.1)">
      <defs>
       <path id="DejaVuSans-56" d="M 1831 0 
L 50 4666 
L 709 4666 
L 2188 738 
L 3669 4666 
L 4325 4666 
L 2547 0 
L 1831 0 
z
" transform="scale(0.015625)"/>
       <path id="DejaVuSans-5a" d="M 359 4666 
L 4025 4666 
L 4025 4184 
L 1075 531 
L 4097 531 
L 4097 0 
L 288 0 
L 288 481 
L 3238 4134 
L 359 4134 
L 359 4666 
z
" transform="scale(0.015625)"/>
      </defs>
      <use xlink:href="#DejaVuSans-56"/>
      <use xlink:href="#DejaVuSans-5a" x="68.408203"/>
     </g>
    </g>
    <g id="patch_27">
     <path d="M 397.8 251.281562 
L 417.8 251.281562 
L 417.8 244.281562 
L 397.8 244.281562 
z
" style="fill: #17becf; stroke: #17becf; stroke-linejoin: miter"/>
    </g>
    <g id="text_37">
     <!-- NEM -->
     <g transform="translate(425.8 251.281562) scale(0.1 -0.1)">
      <use xlink:href="#DejaVuSans-4e"/>
      <use xlink:href="#DejaVuSans-45" x="74.804688"/>
      <use xlink:href="#DejaVuSans-4d" x="137.988281"/>
     </g>
    </g>
   </g>
  </g>
 </g>
 <defs>
  <clipPath id="pca2b95b379">
   <rect x="54" y="25.92" width="334.8" height="166.32"/>
  </clipPath>
 </defs>
</svg>
